<mxfile host="app.diagrams.net" agent="Mozilla/5.0 (Windows NT 10.0; Win64; x64) AppleWebKit/537.36 (KHTML, like Gecko) Chrome/131.0.0.0 Safari/537.36" version="25.0.3">
  <diagram name="Page-1" id="Ovt01IkkBYQaQMZj4dQt">
    <mxGraphModel dx="954" dy="558" grid="1" gridSize="10" guides="1" tooltips="1" connect="1" arrows="1" fold="1" page="1" pageScale="1" pageWidth="850" pageHeight="1100" math="0" shadow="0">
      <root>
        <mxCell id="0" />
        <mxCell id="1" parent="0" />
        <mxCell id="uidTZ6FEN5Be5QbSRCGR-1" value="&lt;p style=&quot;margin:0px;margin-top:4px;text-align:center;&quot;&gt;&lt;/p&gt;&lt;div style=&quot;height:2px;&quot;&gt;&lt;/div&gt;&lt;div style=&quot;text-align: center;&quot;&gt;&lt;span style=&quot;font-weight: 700; background-color: initial;&quot;&gt;&amp;nbsp;BatteryPack&lt;/span&gt;&lt;/div&gt;&lt;hr size=&quot;1&quot; style=&quot;border-style:solid;&quot;&gt;&lt;div style=&quot;height:2px;&quot;&gt;&lt;div style=&quot;height: 2px;&quot;&gt;&amp;nbsp;maker: String&lt;/div&gt;&lt;div style=&quot;height: 2px;&quot;&gt;&lt;br&gt;&lt;/div&gt;&lt;div style=&quot;height: 2px;&quot;&gt;&lt;br&gt;&lt;/div&gt;&lt;div style=&quot;height: 2px;&quot;&gt;&lt;br&gt;&lt;/div&gt;&lt;div style=&quot;height: 2px;&quot;&gt;&lt;br&gt;&lt;/div&gt;&lt;div style=&quot;height: 2px;&quot;&gt;&lt;br&gt;&lt;/div&gt;&lt;div style=&quot;height: 2px;&quot;&gt;&lt;br&gt;&lt;/div&gt;&lt;div style=&quot;height: 2px;&quot;&gt;&lt;br&gt;&lt;/div&gt;&lt;div style=&quot;height: 2px;&quot;&gt;&lt;br&gt;&lt;/div&gt;&lt;div style=&quot;height: 2px;&quot;&gt;&amp;nbsp;safetyLevel:&amp;nbsp;&lt;span style=&quot;background-color: initial;&quot;&gt;Enum&lt;/span&gt;&lt;br&gt;&lt;/div&gt;&lt;div style=&quot;height: 2px;&quot;&gt;&lt;br&gt;&lt;/div&gt;&lt;div style=&quot;height: 2px;&quot;&gt;&lt;br&gt;&lt;/div&gt;&lt;div style=&quot;height: 2px;&quot;&gt;&lt;br&gt;&lt;/div&gt;&lt;div style=&quot;height: 2px;&quot;&gt;&lt;br&gt;&lt;/div&gt;&lt;div style=&quot;height: 2px;&quot;&gt;&lt;br&gt;&lt;/div&gt;&lt;div style=&quot;height: 2px;&quot;&gt;&lt;br&gt;&lt;/div&gt;&lt;div style=&quot;height: 2px;&quot;&gt;&lt;br&gt;&lt;/div&gt;&lt;div style=&quot;height: 2px;&quot;&gt;&lt;br&gt;&lt;/div&gt;&lt;div style=&quot;height: 2px;&quot;&gt;&amp;nbsp;capacity:&amp;nbsp;&lt;span style=&quot;background-color: initial;&quot;&gt;Integer&lt;/span&gt;&lt;br&gt;&lt;/div&gt;&lt;div style=&quot;height: 2px;&quot;&gt;&lt;br&gt;&lt;/div&gt;&lt;div style=&quot;height: 2px;&quot;&gt;&lt;br&gt;&lt;/div&gt;&lt;div style=&quot;height: 2px;&quot;&gt;&lt;br&gt;&lt;/div&gt;&lt;div style=&quot;height: 2px;&quot;&gt;&lt;br&gt;&lt;/div&gt;&lt;div style=&quot;height: 2px;&quot;&gt;&lt;br&gt;&lt;/div&gt;&lt;div style=&quot;height: 2px;&quot;&gt;&lt;br&gt;&lt;/div&gt;&lt;div style=&quot;height: 2px;&quot;&gt;&lt;br&gt;&lt;/div&gt;&lt;div style=&quot;height: 2px;&quot;&gt;&lt;br&gt;&lt;/div&gt;&lt;div style=&quot;height: 2px;&quot;&gt;&lt;span style=&quot;background-color: initial;&quot;&gt;&amp;nbsp;protocol:&amp;nbsp;&lt;/span&gt;&lt;span style=&quot;background-color: initial;&quot;&gt;String&lt;/span&gt;&lt;br&gt;&lt;/div&gt;&lt;div style=&quot;height: 2px;&quot;&gt;&lt;span style=&quot;background-color: initial;&quot;&gt;&lt;br&gt;&lt;/span&gt;&lt;/div&gt;&lt;div style=&quot;height: 2px;&quot;&gt;&lt;span style=&quot;background-color: initial;&quot;&gt;&lt;br&gt;&lt;/span&gt;&lt;/div&gt;&lt;div style=&quot;height: 2px;&quot;&gt;&lt;span style=&quot;background-color: initial;&quot;&gt;&lt;br&gt;&lt;/span&gt;&lt;/div&gt;&lt;div style=&quot;height: 2px;&quot;&gt;&lt;span style=&quot;background-color: initial;&quot;&gt;&lt;br&gt;&lt;/span&gt;&lt;/div&gt;&lt;div style=&quot;height: 2px;&quot;&gt;&lt;span style=&quot;background-color: initial;&quot;&gt;&lt;br&gt;&lt;/span&gt;&lt;/div&gt;&lt;div style=&quot;height: 2px;&quot;&gt;&lt;span style=&quot;background-color: initial;&quot;&gt;&lt;br&gt;&lt;/span&gt;&lt;/div&gt;&lt;div style=&quot;height: 2px;&quot;&gt;&lt;span style=&quot;background-color: initial;&quot;&gt;&lt;br&gt;&lt;/span&gt;&lt;/div&gt;&lt;div style=&quot;height: 2px;&quot;&gt;&lt;span style=&quot;background-color: initial;&quot;&gt;&lt;br&gt;&lt;/span&gt;&lt;/div&gt;&lt;div style=&quot;height: 2px;&quot;&gt;&amp;nbsp;&lt;span style=&quot;background-color: initial;&quot;&gt;rawMaterial:&amp;nbsp;&lt;/span&gt;&lt;span style=&quot;background-color: initial;&quot;&gt;String&lt;/span&gt;&lt;/div&gt;&lt;div style=&quot;height: 2px;&quot;&gt;&lt;span style=&quot;background-color: initial;&quot;&gt;&lt;br&gt;&lt;/span&gt;&lt;/div&gt;&lt;div style=&quot;height: 2px;&quot;&gt;&lt;span style=&quot;background-color: initial;&quot;&gt;&lt;br&gt;&lt;/span&gt;&lt;/div&gt;&lt;div style=&quot;height: 2px;&quot;&gt;&lt;span style=&quot;background-color: initial;&quot;&gt;&lt;br&gt;&lt;/span&gt;&lt;/div&gt;&lt;div style=&quot;height: 2px;&quot;&gt;&lt;span style=&quot;background-color: initial;&quot;&gt;&lt;br&gt;&lt;/span&gt;&lt;/div&gt;&lt;div style=&quot;height: 2px;&quot;&gt;&lt;span style=&quot;background-color: initial;&quot;&gt;&lt;br&gt;&lt;/span&gt;&lt;/div&gt;&lt;div style=&quot;height: 2px;&quot;&gt;&lt;span style=&quot;background-color: initial;&quot;&gt;&lt;br&gt;&lt;/span&gt;&lt;/div&gt;&lt;div style=&quot;height: 2px;&quot;&gt;&lt;span style=&quot;background-color: initial;&quot;&gt;&lt;br&gt;&lt;/span&gt;&lt;/div&gt;&lt;div style=&quot;height: 2px;&quot;&gt;&lt;span style=&quot;background-color: initial;&quot;&gt;&lt;br&gt;&lt;/span&gt;&lt;/div&gt;&lt;div style=&quot;height: 2px;&quot;&gt;&lt;span style=&quot;background-color: initial;&quot;&gt;&amp;nbsp;SoC: Integer&lt;/span&gt;&lt;/div&gt;&lt;div style=&quot;height: 2px;&quot;&gt;&lt;span style=&quot;background-color: initial;&quot;&gt;&lt;br&gt;&lt;/span&gt;&lt;/div&gt;&lt;div style=&quot;height: 2px;&quot;&gt;&lt;span style=&quot;background-color: initial;&quot;&gt;&lt;br&gt;&lt;/span&gt;&lt;/div&gt;&lt;div style=&quot;height: 2px;&quot;&gt;&lt;span style=&quot;background-color: initial;&quot;&gt;&lt;br&gt;&lt;/span&gt;&lt;/div&gt;&lt;div style=&quot;height: 2px;&quot;&gt;&lt;span style=&quot;background-color: initial;&quot;&gt;&lt;br&gt;&lt;/span&gt;&lt;/div&gt;&lt;div style=&quot;height: 2px;&quot;&gt;&lt;br&gt;&lt;/div&gt;&lt;div style=&quot;height: 2px;&quot;&gt;&lt;br&gt;&lt;/div&gt;&lt;div style=&quot;height: 2px;&quot;&gt;&lt;br&gt;&lt;/div&gt;&lt;div style=&quot;height: 2px;&quot;&gt;&lt;br&gt;&lt;/div&gt;&lt;div style=&quot;height: 2px;&quot;&gt;&lt;hr style=&quot;border-style: solid;&quot; size=&quot;1&quot;&gt;&lt;div style=&quot;height: 2px;&quot;&gt;&lt;div style=&quot;height: 2px;&quot;&gt;&amp;nbsp;drawPower&lt;span style=&quot;background-color: initial;&quot;&gt;()&lt;/span&gt;&lt;/div&gt;&lt;div style=&quot;height: 2px;&quot;&gt;&lt;span style=&quot;background-color: initial;&quot;&gt;&lt;br&gt;&lt;/span&gt;&lt;/div&gt;&lt;div style=&quot;height: 2px;&quot;&gt;&lt;span style=&quot;background-color: initial;&quot;&gt;&lt;br&gt;&lt;/span&gt;&lt;/div&gt;&lt;div style=&quot;height: 2px;&quot;&gt;&lt;span style=&quot;background-color: initial;&quot;&gt;&lt;br&gt;&lt;/span&gt;&lt;/div&gt;&lt;div style=&quot;height: 2px;&quot;&gt;&lt;span style=&quot;background-color: initial;&quot;&gt;&lt;br&gt;&lt;/span&gt;&lt;/div&gt;&lt;div style=&quot;height: 2px;&quot;&gt;&lt;span style=&quot;background-color: initial;&quot;&gt;&lt;br&gt;&lt;/span&gt;&lt;/div&gt;&lt;div style=&quot;height: 2px;&quot;&gt;&lt;span style=&quot;background-color: initial;&quot;&gt;&lt;br&gt;&lt;/span&gt;&lt;/div&gt;&lt;div style=&quot;height: 2px;&quot;&gt;&lt;span style=&quot;background-color: initial;&quot;&gt;&lt;br&gt;&lt;/span&gt;&lt;/div&gt;&lt;div style=&quot;height: 2px;&quot;&gt;&lt;span style=&quot;background-color: initial;&quot;&gt;&amp;nbsp;addPower&lt;/span&gt;&lt;span style=&quot;background-color: initial;&quot;&gt;()&lt;/span&gt;&lt;/div&gt;&lt;div style=&quot;height: 2px;&quot;&gt;&lt;br&gt;&lt;/div&gt;&lt;div style=&quot;height: 2px;&quot;&gt;&lt;br&gt;&lt;/div&gt;&lt;div style=&quot;height: 2px;&quot;&gt;&lt;br&gt;&lt;/div&gt;&lt;div style=&quot;height: 2px;&quot;&gt;&lt;br&gt;&lt;/div&gt;&lt;div style=&quot;height: 2px;&quot;&gt;&lt;br&gt;&lt;/div&gt;&lt;div style=&quot;height: 2px;&quot;&gt;&lt;br&gt;&lt;/div&gt;&lt;div style=&quot;height: 2px;&quot;&gt;&amp;nbsp;&lt;/div&gt;&lt;div style=&quot;height: 2px;&quot;&gt;&amp;nbsp;&lt;span style=&quot;text-align: center; text-wrap-mode: nowrap; background-color: rgb(255, 255, 255);&quot;&gt;&lt;font style=&quot;font-size: 12px;&quot;&gt;stopDrawingPower&lt;/font&gt;&lt;/span&gt;()&lt;/div&gt;&lt;div style=&quot;height: 2px;&quot;&gt;&lt;br&gt;&lt;/div&gt;&lt;div style=&quot;height: 2px;&quot;&gt;&lt;br&gt;&lt;/div&gt;&lt;div style=&quot;height: 2px;&quot;&gt;&lt;br&gt;&lt;/div&gt;&lt;div style=&quot;height: 2px;&quot;&gt;&lt;br&gt;&lt;/div&gt;&lt;div style=&quot;height: 2px;&quot;&gt;&lt;br&gt;&lt;/div&gt;&lt;div style=&quot;height: 2px;&quot;&gt;&lt;br&gt;&lt;/div&gt;&lt;div style=&quot;height: 2px;&quot;&gt;&amp;nbsp;&lt;/div&gt;&lt;div style=&quot;height: 2px;&quot;&gt;&amp;nbsp;stopAddingPower()&lt;/div&gt;&lt;div style=&quot;height: 2px;&quot;&gt;&lt;br&gt;&lt;/div&gt;&lt;div style=&quot;height: 2px;&quot;&gt;&lt;br&gt;&lt;/div&gt;&lt;div style=&quot;height: 2px;&quot;&gt;&lt;br&gt;&lt;/div&gt;&lt;div style=&quot;height: 2px;&quot;&gt;&lt;br&gt;&lt;/div&gt;&lt;div style=&quot;height: 2px;&quot;&gt;&lt;br&gt;&lt;/div&gt;&lt;div style=&quot;height: 2px;&quot;&gt;&lt;br&gt;&lt;/div&gt;&lt;div style=&quot;height: 2px;&quot;&gt;&lt;br&gt;&lt;/div&gt;&lt;div style=&quot;height: 2px;&quot;&gt;&lt;br&gt;&lt;/div&gt;&lt;div style=&quot;height: 2px;&quot;&gt;&amp;nbsp;checkSoC()&lt;/div&gt;&lt;/div&gt;&lt;/div&gt;&lt;/div&gt;" style="verticalAlign=top;align=left;overflow=fill;html=1;whiteSpace=wrap;" vertex="1" parent="1">
          <mxGeometry x="40" y="40" width="220" height="240" as="geometry" />
        </mxCell>
        <mxCell id="uidTZ6FEN5Be5QbSRCGR-2" value="Activity-oriented State Diagram" style="text;html=1;align=center;verticalAlign=middle;resizable=0;points=[];autosize=1;strokeColor=none;fillColor=none;fontStyle=6;fontSize=20;" vertex="1" parent="1">
          <mxGeometry x="380" y="53" width="300" height="40" as="geometry" />
        </mxCell>
        <mxCell id="uidTZ6FEN5Be5QbSRCGR-3" value="" style="ellipse;html=1;shape=startState;fillColor=#000000;strokeColor=#ff0000;" vertex="1" parent="1">
          <mxGeometry x="120" y="480" width="30" height="30" as="geometry" />
        </mxCell>
        <mxCell id="uidTZ6FEN5Be5QbSRCGR-4" value="" style="edgeStyle=orthogonalEdgeStyle;html=1;verticalAlign=bottom;endArrow=open;endSize=8;strokeColor=#ff0000;rounded=0;entryX=0.25;entryY=0;entryDx=0;entryDy=0;" edge="1" parent="1" source="uidTZ6FEN5Be5QbSRCGR-3" target="uidTZ6FEN5Be5QbSRCGR-10">
          <mxGeometry relative="1" as="geometry">
            <mxPoint x="798" y="651" as="targetPoint" />
          </mxGeometry>
        </mxCell>
        <mxCell id="uidTZ6FEN5Be5QbSRCGR-5" value="" style="ellipse;html=1;shape=endState;fillColor=#000000;strokeColor=#ff0000;" vertex="1" parent="1">
          <mxGeometry x="120" y="730" width="30" height="30" as="geometry" />
        </mxCell>
        <mxCell id="uidTZ6FEN5Be5QbSRCGR-6" value="" style="edgeStyle=orthogonalEdgeStyle;html=1;verticalAlign=bottom;endArrow=open;endSize=8;strokeColor=#ff0000;rounded=0;exitX=0.25;exitY=1;exitDx=0;exitDy=0;entryX=0.515;entryY=-0.093;entryDx=0;entryDy=0;entryPerimeter=0;" edge="1" parent="1" source="uidTZ6FEN5Be5QbSRCGR-10" target="uidTZ6FEN5Be5QbSRCGR-5">
          <mxGeometry relative="1" as="geometry">
            <mxPoint x="798.5" y="676" as="targetPoint" />
            <mxPoint x="683" y="651" as="sourcePoint" />
          </mxGeometry>
        </mxCell>
        <mxCell id="uidTZ6FEN5Be5QbSRCGR-7" value="turnOff()" style="edgeLabel;html=1;align=center;verticalAlign=middle;resizable=0;points=[];" vertex="1" connectable="0" parent="uidTZ6FEN5Be5QbSRCGR-6">
          <mxGeometry x="-0.1613" relative="1" as="geometry">
            <mxPoint y="1" as="offset" />
          </mxGeometry>
        </mxCell>
        <mxCell id="uidTZ6FEN5Be5QbSRCGR-8" style="edgeStyle=orthogonalEdgeStyle;rounded=0;orthogonalLoop=1;jettySize=auto;html=1;entryX=0;entryY=0.5;entryDx=0;entryDy=0;exitX=0.5;exitY=1;exitDx=0;exitDy=0;endArrow=open;endFill=0;endSize=10;curved=1;fillColor=#d5e8d4;strokeColor=#000000;" edge="1" parent="1" source="uidTZ6FEN5Be5QbSRCGR-10" target="uidTZ6FEN5Be5QbSRCGR-17">
          <mxGeometry relative="1" as="geometry" />
        </mxCell>
        <mxCell id="uidTZ6FEN5Be5QbSRCGR-9" value="[SoC &amp;gt; o] &lt;br&gt;drawPower()" style="edgeLabel;html=1;align=center;verticalAlign=middle;resizable=0;points=[];fontSize=11;fontColor=#000000;" vertex="1" connectable="0" parent="uidTZ6FEN5Be5QbSRCGR-8">
          <mxGeometry x="0.47" relative="1" as="geometry">
            <mxPoint x="-29" as="offset" />
          </mxGeometry>
        </mxCell>
        <mxCell id="uidTZ6FEN5Be5QbSRCGR-10" value="&lt;div&gt;&lt;br&gt;&lt;/div&gt;&lt;div style=&quot;text-align: center;&quot;&gt;Idle&lt;/div&gt;&lt;hr style=&quot;border-style: solid;&quot; size=&quot;1&quot;&gt;&lt;div style=&quot;height: 2px;&quot;&gt;&lt;div style=&quot;height: 2px;&quot;&gt;&amp;nbsp;&lt;/div&gt;&lt;div style=&quot;height: 2px;&quot;&gt;&lt;br style=&quot;&quot;&gt;&lt;/div&gt;&lt;/div&gt;" style="verticalAlign=top;align=left;overflow=fill;html=1;whiteSpace=wrap;rounded=1;horizontal=1;" vertex="1" parent="1">
          <mxGeometry x="90.5" y="570" width="179.5" height="90" as="geometry" />
        </mxCell>
        <mxCell id="uidTZ6FEN5Be5QbSRCGR-11" style="edgeStyle=orthogonalEdgeStyle;rounded=0;orthogonalLoop=1;jettySize=auto;html=1;entryX=1;entryY=0.75;entryDx=0;entryDy=0;exitX=0.5;exitY=0;exitDx=0;exitDy=0;endArrow=open;endFill=0;endSize=10;curved=1;" edge="1" parent="1" source="uidTZ6FEN5Be5QbSRCGR-17" target="uidTZ6FEN5Be5QbSRCGR-10">
          <mxGeometry relative="1" as="geometry" />
        </mxCell>
        <mxCell id="uidTZ6FEN5Be5QbSRCGR-12" value="&lt;span style=&quot;text-align: left; text-wrap-mode: wrap; background-color: rgb(251, 251, 251);&quot;&gt;[SoC == 0]&lt;br&gt;checkSoC()&lt;/span&gt;" style="edgeLabel;html=1;align=center;verticalAlign=middle;resizable=0;points=[];" vertex="1" connectable="0" parent="uidTZ6FEN5Be5QbSRCGR-11">
          <mxGeometry x="0.1897" y="-1" relative="1" as="geometry">
            <mxPoint as="offset" />
          </mxGeometry>
        </mxCell>
        <mxCell id="uidTZ6FEN5Be5QbSRCGR-13" style="edgeStyle=orthogonalEdgeStyle;rounded=0;orthogonalLoop=1;jettySize=auto;html=1;exitX=-0.001;exitY=0.167;exitDx=0;exitDy=0;entryX=0.75;entryY=1;entryDx=0;entryDy=0;curved=1;exitPerimeter=0;endSize=10;endArrow=open;endFill=0;fillColor=#ffe6cc;strokeColor=#000000;" edge="1" parent="1" source="uidTZ6FEN5Be5QbSRCGR-17" target="uidTZ6FEN5Be5QbSRCGR-10">
          <mxGeometry relative="1" as="geometry" />
        </mxCell>
        <mxCell id="uidTZ6FEN5Be5QbSRCGR-14" value="stopDrawingPower()" style="edgeLabel;html=1;align=center;verticalAlign=middle;resizable=0;points=[];fontColor=#000000;" vertex="1" connectable="0" parent="uidTZ6FEN5Be5QbSRCGR-13">
          <mxGeometry x="-0.2018" y="-7" relative="1" as="geometry">
            <mxPoint as="offset" />
          </mxGeometry>
        </mxCell>
        <mxCell id="uidTZ6FEN5Be5QbSRCGR-15" style="edgeStyle=orthogonalEdgeStyle;rounded=0;orthogonalLoop=1;jettySize=auto;html=1;exitX=0.75;exitY=0;exitDx=0;exitDy=0;entryX=0.75;entryY=1;entryDx=0;entryDy=0;" edge="1" parent="1" source="uidTZ6FEN5Be5QbSRCGR-17" target="uidTZ6FEN5Be5QbSRCGR-26">
          <mxGeometry relative="1" as="geometry" />
        </mxCell>
        <mxCell id="uidTZ6FEN5Be5QbSRCGR-16" value="addPower()" style="edgeLabel;html=1;align=center;verticalAlign=middle;resizable=0;points=[];" vertex="1" connectable="0" parent="uidTZ6FEN5Be5QbSRCGR-15">
          <mxGeometry x="-0.0087" y="-1" relative="1" as="geometry">
            <mxPoint as="offset" />
          </mxGeometry>
        </mxCell>
        <mxCell id="uidTZ6FEN5Be5QbSRCGR-17" value="&lt;p style=&quot;margin:0px;margin-top:4px;text-align:center;&quot;&gt;Discharging&lt;/p&gt;&lt;hr size=&quot;1&quot; style=&quot;border-style:solid;&quot;&gt;&lt;div style=&quot;height:2px;&quot;&gt;&lt;div style=&quot;height: 2px;&quot;&gt;&lt;span style=&quot;background-color: initial;&quot;&gt;&amp;nbsp;[SoC &amp;gt; 0] checkSoC()&lt;/span&gt;&lt;/div&gt;&lt;div style=&quot;height: 2px;&quot;&gt;&lt;span style=&quot;background-color: initial;&quot;&gt;&lt;br&gt;&lt;/span&gt;&lt;/div&gt;&lt;div style=&quot;height: 2px;&quot;&gt;&lt;span style=&quot;background-color: initial;&quot;&gt;&lt;br&gt;&lt;/span&gt;&lt;/div&gt;&lt;div style=&quot;height: 2px;&quot;&gt;&lt;span style=&quot;background-color: initial;&quot;&gt;&lt;br&gt;&lt;/span&gt;&lt;/div&gt;&lt;div style=&quot;height: 2px;&quot;&gt;&lt;span style=&quot;background-color: initial;&quot;&gt;&lt;br&gt;&lt;/span&gt;&lt;/div&gt;&lt;div style=&quot;height: 2px;&quot;&gt;&lt;span style=&quot;background-color: initial;&quot;&gt;&lt;br&gt;&lt;/span&gt;&lt;/div&gt;&lt;div style=&quot;height: 2px;&quot;&gt;&lt;span style=&quot;background-color: initial;&quot;&gt;&lt;br&gt;&lt;/span&gt;&lt;/div&gt;&lt;div style=&quot;height: 2px;&quot;&gt;&lt;span style=&quot;background-color: initial;&quot;&gt;&lt;br&gt;&lt;/span&gt;&lt;/div&gt;&lt;div style=&quot;height: 2px;&quot;&gt;&lt;span style=&quot;background-color: initial;&quot;&gt;&lt;br&gt;&lt;/span&gt;&lt;/div&gt;&lt;div style=&quot;height: 2px;&quot;&gt;&lt;br&gt;&lt;/div&gt;&lt;div style=&quot;height: 2px;&quot;&gt;&lt;span style=&quot;background-color: initial;&quot;&gt;&lt;br&gt;&lt;/span&gt;&lt;/div&gt;&lt;div style=&quot;height: 2px;&quot;&gt;&lt;span style=&quot;background-color: initial;&quot;&gt;&lt;br&gt;&lt;/span&gt;&lt;/div&gt;&lt;div style=&quot;height: 2px;&quot;&gt;&lt;span style=&quot;background-color: initial;&quot;&gt;&lt;br&gt;&lt;/span&gt;&lt;/div&gt;&lt;div style=&quot;height: 2px;&quot;&gt;&lt;span style=&quot;background-color: initial;&quot;&gt;&lt;br&gt;&lt;/span&gt;&lt;/div&gt;&lt;div style=&quot;height: 2px;&quot;&gt;&lt;br&gt;&lt;/div&gt;&lt;/div&gt;" style="verticalAlign=top;align=left;overflow=fill;html=1;whiteSpace=wrap;rounded=1;" vertex="1" parent="1">
          <mxGeometry x="470" y="710" width="229.5" height="80" as="geometry" />
        </mxCell>
        <mxCell id="uidTZ6FEN5Be5QbSRCGR-18" style="edgeStyle=orthogonalEdgeStyle;rounded=0;orthogonalLoop=1;jettySize=auto;html=1;entryX=0;entryY=0.5;entryDx=0;entryDy=0;exitX=0.5;exitY=0;exitDx=0;exitDy=0;endArrow=open;endFill=0;endSize=10;curved=1;fillColor=#d5e8d4;strokeColor=#000000;" edge="1" parent="1" source="uidTZ6FEN5Be5QbSRCGR-10" target="uidTZ6FEN5Be5QbSRCGR-26">
          <mxGeometry relative="1" as="geometry">
            <mxPoint x="460.25" y="205" as="sourcePoint" />
          </mxGeometry>
        </mxCell>
        <mxCell id="uidTZ6FEN5Be5QbSRCGR-19" value="addPower()" style="edgeLabel;html=1;align=center;verticalAlign=middle;resizable=0;points=[];fontSize=11;fontColor=#000000;" vertex="1" connectable="0" parent="uidTZ6FEN5Be5QbSRCGR-18">
          <mxGeometry x="0.47" relative="1" as="geometry">
            <mxPoint x="-45" as="offset" />
          </mxGeometry>
        </mxCell>
        <mxCell id="uidTZ6FEN5Be5QbSRCGR-20" style="edgeStyle=orthogonalEdgeStyle;rounded=0;orthogonalLoop=1;jettySize=auto;html=1;entryX=1;entryY=0.25;entryDx=0;entryDy=0;exitX=0.5;exitY=1;exitDx=0;exitDy=0;endSize=10;endArrow=open;endFill=0;curved=1;" edge="1" parent="1" source="uidTZ6FEN5Be5QbSRCGR-26" target="uidTZ6FEN5Be5QbSRCGR-10">
          <mxGeometry relative="1" as="geometry" />
        </mxCell>
        <mxCell id="uidTZ6FEN5Be5QbSRCGR-21" value="[SoC &amp;gt;= capacity] &lt;br&gt;checkSoC()" style="edgeLabel;html=1;align=center;verticalAlign=middle;resizable=0;points=[];" vertex="1" connectable="0" parent="uidTZ6FEN5Be5QbSRCGR-20">
          <mxGeometry x="0.1792" relative="1" as="geometry">
            <mxPoint x="-10" y="-6" as="offset" />
          </mxGeometry>
        </mxCell>
        <mxCell id="uidTZ6FEN5Be5QbSRCGR-22" style="edgeStyle=orthogonalEdgeStyle;rounded=0;orthogonalLoop=1;jettySize=auto;html=1;entryX=0.75;entryY=0;entryDx=0;entryDy=0;curved=1;exitX=0.011;exitY=0.909;exitDx=0;exitDy=0;endArrow=open;endFill=0;endSize=10;exitPerimeter=0;fillColor=#ffe6cc;strokeColor=#000000;" edge="1" parent="1" source="uidTZ6FEN5Be5QbSRCGR-26" target="uidTZ6FEN5Be5QbSRCGR-10">
          <mxGeometry relative="1" as="geometry" />
        </mxCell>
        <mxCell id="uidTZ6FEN5Be5QbSRCGR-23" value="stopAddingPower()" style="edgeLabel;html=1;align=center;verticalAlign=middle;resizable=0;points=[];fontColor=#000000;" vertex="1" connectable="0" parent="uidTZ6FEN5Be5QbSRCGR-22">
          <mxGeometry x="-0.0264" y="1" relative="1" as="geometry">
            <mxPoint x="28" y="7" as="offset" />
          </mxGeometry>
        </mxCell>
        <mxCell id="uidTZ6FEN5Be5QbSRCGR-24" style="edgeStyle=orthogonalEdgeStyle;rounded=0;orthogonalLoop=1;jettySize=auto;html=1;exitX=1;exitY=0.5;exitDx=0;exitDy=0;entryX=1;entryY=0.5;entryDx=0;entryDy=0;curved=1;endArrow=open;endFill=0;endSize=10;" edge="1" parent="1" source="uidTZ6FEN5Be5QbSRCGR-26" target="uidTZ6FEN5Be5QbSRCGR-17">
          <mxGeometry relative="1" as="geometry">
            <Array as="points">
              <mxPoint x="750" y="437" />
              <mxPoint x="750" y="750" />
            </Array>
          </mxGeometry>
        </mxCell>
        <mxCell id="uidTZ6FEN5Be5QbSRCGR-25" value="[SoC &amp;gt; o]&lt;br&gt;drawPower()" style="edgeLabel;html=1;align=center;verticalAlign=middle;resizable=0;points=[];" vertex="1" connectable="0" parent="uidTZ6FEN5Be5QbSRCGR-24">
          <mxGeometry x="0.18" y="-2" relative="1" as="geometry">
            <mxPoint as="offset" />
          </mxGeometry>
        </mxCell>
        <mxCell id="uidTZ6FEN5Be5QbSRCGR-26" value="&lt;p style=&quot;margin:0px;margin-top:4px;text-align:center;&quot;&gt;Charging&lt;/p&gt;&lt;hr size=&quot;1&quot; style=&quot;border-style:solid;&quot;&gt;&lt;div style=&quot;height:2px;&quot;&gt;&lt;div style=&quot;height: 2px;&quot;&gt;&amp;nbsp;[SoC &amp;lt; capacity] checkSoC()&lt;/div&gt;&lt;div style=&quot;height: 2px;&quot;&gt;&lt;br&gt;&lt;/div&gt;&lt;div style=&quot;height: 2px;&quot;&gt;&lt;br&gt;&lt;/div&gt;&lt;div style=&quot;height: 2px;&quot;&gt;&lt;br&gt;&lt;/div&gt;&lt;div style=&quot;height: 2px;&quot;&gt;&lt;br&gt;&lt;/div&gt;&lt;div style=&quot;height: 2px;&quot;&gt;&lt;br&gt;&lt;/div&gt;&lt;div style=&quot;height: 2px;&quot;&gt;&lt;br&gt;&lt;/div&gt;&lt;div style=&quot;height: 2px;&quot;&gt;&lt;span style=&quot;background-color: initial;&quot;&gt;&lt;br&gt;&lt;/span&gt;&lt;/div&gt;&lt;div style=&quot;height: 2px;&quot;&gt;&lt;span style=&quot;background-color: initial;&quot;&gt;&lt;br&gt;&lt;/span&gt;&lt;/div&gt;&lt;div style=&quot;height: 2px;&quot;&gt;&lt;br&gt;&lt;/div&gt;&lt;div style=&quot;height: 2px;&quot;&gt;&lt;br&gt;&lt;/div&gt;&lt;div style=&quot;height: 2px;&quot;&gt;&lt;br&gt;&lt;/div&gt;&lt;div style=&quot;height: 2px;&quot;&gt;&lt;br&gt;&lt;/div&gt;&lt;div style=&quot;height: 2px;&quot;&gt;&amp;nbsp;&lt;/div&gt;&lt;div style=&quot;height: 2px;&quot;&gt;&lt;br&gt;&lt;/div&gt;&lt;/div&gt;" style="verticalAlign=top;align=left;overflow=fill;html=1;whiteSpace=wrap;rounded=1;" vertex="1" parent="1">
          <mxGeometry x="470" y="394" width="229.5" height="86" as="geometry" />
        </mxCell>
        <mxCell id="uidTZ6FEN5Be5QbSRCGR-27" value="&lt;h1 style=&quot;margin-top: 0px;&quot;&gt;Notes&lt;/h1&gt;&lt;p&gt;Assuming that &lt;code&gt;checkSoC()&lt;/code&gt; runs as a background process that changes states based on the current state and conditions.&lt;/p&gt;&lt;p&gt;For the sake of simplicity, only external triggers are considered.&lt;/p&gt;&lt;p&gt;&lt;span style=&quot;background-color: initial;&quot;&gt;&lt;span style=&quot;white-space: pre;&quot;&gt;&#x9;&lt;/span&gt;unplug ---&amp;gt; stopCharging()&lt;/span&gt;&lt;/p&gt;&lt;p&gt;&lt;span style=&quot;background-color: initial;&quot;&gt;&lt;span style=&quot;white-space: pre;&quot;&gt;&#x9;&lt;/span&gt;plug in ---&amp;gt; startCharging()&lt;br&gt;&lt;/span&gt;&lt;/p&gt;&lt;p&gt;&lt;span style=&quot;background-color: initial;&quot;&gt;&lt;span style=&quot;white-space: pre;&quot;&gt;&#x9;&lt;/span&gt;press the gas pedal down ---&amp;gt; startDischarging()&lt;br&gt;&lt;/span&gt;&lt;/p&gt;&lt;p&gt;&lt;span style=&quot;background-color: initial;&quot;&gt;&lt;span style=&quot;white-space: pre;&quot;&gt;&#x9;&lt;/span&gt;&lt;u&gt;r&lt;/u&gt;&lt;/span&gt;&lt;span style=&quot;background-color: initial;&quot;&gt;&lt;u&gt;elease the gas pedal ---&amp;gt; stopDischarging()&lt;/u&gt;&lt;/span&gt;&lt;/p&gt;&lt;p&gt;&lt;u&gt;Vehicle States: 1. standby, using, ...&lt;/u&gt;&lt;/p&gt;&lt;p&gt;&lt;span style=&quot;background-color: initial;&quot;&gt;&lt;br&gt;&lt;/span&gt;&lt;/p&gt;&lt;p&gt;&lt;br&gt;&lt;/p&gt;&lt;p&gt;&lt;br&gt;&lt;/p&gt;" style="text;html=1;whiteSpace=wrap;overflow=hidden;rounded=0;" vertex="1" parent="1">
          <mxGeometry x="112.5" y="800" width="600" height="240" as="geometry" />
        </mxCell>
        <mxCell id="uidTZ6FEN5Be5QbSRCGR-28" value="" style="shape=table;startSize=0;container=1;collapsible=0;childLayout=tableLayout;fontSize=16;rounded=0;strokeColor=default;swimlaneFillColor=none;gradientColor=none;" vertex="1" parent="1">
          <mxGeometry x="920" y="40" width="720" height="380" as="geometry" />
        </mxCell>
        <mxCell id="uidTZ6FEN5Be5QbSRCGR-29" value="" style="shape=tableRow;horizontal=0;startSize=0;swimlaneHead=0;swimlaneBody=0;strokeColor=inherit;top=0;left=0;bottom=0;right=0;collapsible=0;dropTarget=0;fillColor=none;points=[[0,0.5],[1,0.5]];portConstraint=eastwest;fontSize=16;" vertex="1" parent="uidTZ6FEN5Be5QbSRCGR-28">
          <mxGeometry width="720" height="40" as="geometry" />
        </mxCell>
        <mxCell id="uidTZ6FEN5Be5QbSRCGR-30" value="&lt;b&gt;Name&lt;/b&gt;" style="shape=partialRectangle;html=1;whiteSpace=wrap;connectable=0;strokeColor=#DFDFDF;overflow=hidden;fillColor=#F7F7F7;top=1;left=1;bottom=1;right=1;pointerEvents=1;fontSize=12;align=left;verticalAlign=middle;spacingLeft=10;spacingRight=10;fontFamily=Helvetica;fontColor=#333333;gradientColor=none;" vertex="1" parent="uidTZ6FEN5Be5QbSRCGR-29">
          <mxGeometry width="90" height="40" as="geometry">
            <mxRectangle width="90" height="40" as="alternateBounds" />
          </mxGeometry>
        </mxCell>
        <mxCell id="uidTZ6FEN5Be5QbSRCGR-31" value="&lt;b&gt;checkSoC&lt;/b&gt;" style="shape=partialRectangle;html=1;whiteSpace=wrap;connectable=0;strokeColor=#DFDFDF;overflow=hidden;fillColor=#F7F7F7;top=1;left=1;bottom=1;right=1;pointerEvents=1;fontSize=12;align=left;verticalAlign=middle;spacingLeft=10;spacingRight=10;fontFamily=Helvetica;fontColor=#333333;gradientColor=none;" vertex="1" parent="uidTZ6FEN5Be5QbSRCGR-29">
          <mxGeometry x="90" width="630" height="40" as="geometry">
            <mxRectangle width="630" height="40" as="alternateBounds" />
          </mxGeometry>
        </mxCell>
        <mxCell id="uidTZ6FEN5Be5QbSRCGR-32" value="" style="shape=tableRow;horizontal=0;startSize=0;swimlaneHead=0;swimlaneBody=0;strokeColor=inherit;top=0;left=0;bottom=0;right=0;collapsible=0;dropTarget=0;fillColor=none;points=[[0,0.5],[1,0.5]];portConstraint=eastwest;fontSize=16;" vertex="1" parent="uidTZ6FEN5Be5QbSRCGR-28">
          <mxGeometry y="40" width="720" height="90" as="geometry" />
        </mxCell>
        <mxCell id="uidTZ6FEN5Be5QbSRCGR-33" value="Description" style="shape=partialRectangle;html=1;whiteSpace=wrap;connectable=0;strokeColor=#DFDFDF;overflow=hidden;fillColor=#F7F7F7;top=1;left=1;bottom=1;right=1;pointerEvents=1;fontSize=12;align=left;verticalAlign=middle;spacingLeft=10;spacingRight=10;fontFamily=Helvetica;fontColor=#333333;gradientColor=none;" vertex="1" parent="uidTZ6FEN5Be5QbSRCGR-32">
          <mxGeometry width="90" height="90" as="geometry">
            <mxRectangle width="90" height="90" as="alternateBounds" />
          </mxGeometry>
        </mxCell>
        <mxCell id="uidTZ6FEN5Be5QbSRCGR-34" value="As an interior event, check the state of chage (SoC) of the Module. If the Module is in the Charging state and the SoC is more than zero, it stays in the current state. If the Module is in the Charging state and the SoC is equal to the capacity or exceeds it, it moves the Module to the Idle state. If the Module is in Discharging state and the SoC is more than Zero, it stays in the current state. If the Module is in the Discharging and the SoC is zero, it moves the Module to the Idle state." style="shape=partialRectangle;html=1;whiteSpace=wrap;connectable=0;strokeColor=#DFDFDF;overflow=hidden;fillColor=#FFFFFF;top=1;left=1;bottom=1;right=1;pointerEvents=1;fontSize=12;align=left;verticalAlign=middle;spacingLeft=10;spacingRight=10;fontFamily=Helvetica;fontColor=#333333;gradientColor=none;" vertex="1" parent="uidTZ6FEN5Be5QbSRCGR-32">
          <mxGeometry x="90" width="630" height="90" as="geometry">
            <mxRectangle width="630" height="90" as="alternateBounds" />
          </mxGeometry>
        </mxCell>
        <mxCell id="uidTZ6FEN5Be5QbSRCGR-35" value="" style="shape=tableRow;horizontal=0;startSize=0;swimlaneHead=0;swimlaneBody=0;strokeColor=inherit;top=0;left=0;bottom=0;right=0;collapsible=0;dropTarget=0;fillColor=none;points=[[0,0.5],[1,0.5]];portConstraint=eastwest;fontSize=16;" vertex="1" parent="uidTZ6FEN5Be5QbSRCGR-28">
          <mxGeometry y="130" width="720" height="40" as="geometry" />
        </mxCell>
        <mxCell id="uidTZ6FEN5Be5QbSRCGR-36" value="Reads" style="shape=partialRectangle;html=1;whiteSpace=wrap;connectable=0;strokeColor=#DFDFDF;overflow=hidden;fillColor=#F7F7F7;top=1;left=1;bottom=1;right=1;pointerEvents=1;fontSize=12;align=left;verticalAlign=middle;spacingLeft=10;spacingRight=10;fontFamily=Helvetica;fontColor=#333333;gradientColor=none;" vertex="1" parent="uidTZ6FEN5Be5QbSRCGR-35">
          <mxGeometry width="90" height="40" as="geometry">
            <mxRectangle width="90" height="40" as="alternateBounds" />
          </mxGeometry>
        </mxCell>
        <mxCell id="uidTZ6FEN5Be5QbSRCGR-37" value="SoC" style="shape=partialRectangle;html=1;whiteSpace=wrap;connectable=0;strokeColor=#DFDFDF;overflow=hidden;fillColor=#FFFFFF;top=1;left=1;bottom=1;right=1;pointerEvents=1;fontSize=12;align=left;verticalAlign=middle;spacingLeft=10;spacingRight=10;fontFamily=Helvetica;fontColor=#333333;gradientColor=none;" vertex="1" parent="uidTZ6FEN5Be5QbSRCGR-35">
          <mxGeometry x="90" width="630" height="40" as="geometry">
            <mxRectangle width="630" height="40" as="alternateBounds" />
          </mxGeometry>
        </mxCell>
        <mxCell id="uidTZ6FEN5Be5QbSRCGR-38" style="shape=tableRow;horizontal=0;startSize=0;swimlaneHead=0;swimlaneBody=0;strokeColor=inherit;top=0;left=0;bottom=0;right=0;collapsible=0;dropTarget=0;fillColor=none;points=[[0,0.5],[1,0.5]];portConstraint=eastwest;fontSize=16;" vertex="1" parent="uidTZ6FEN5Be5QbSRCGR-28">
          <mxGeometry y="170" width="720" height="40" as="geometry" />
        </mxCell>
        <mxCell id="uidTZ6FEN5Be5QbSRCGR-39" value="Changes" style="shape=partialRectangle;html=1;whiteSpace=wrap;connectable=0;strokeColor=#DFDFDF;overflow=hidden;fillColor=#F7F7F7;top=1;left=1;bottom=1;right=1;pointerEvents=1;fontSize=12;align=left;verticalAlign=middle;spacingLeft=10;spacingRight=10;fontFamily=Helvetica;fontColor=#333333;gradientColor=none;" vertex="1" parent="uidTZ6FEN5Be5QbSRCGR-38">
          <mxGeometry width="90" height="40" as="geometry">
            <mxRectangle width="90" height="40" as="alternateBounds" />
          </mxGeometry>
        </mxCell>
        <mxCell id="uidTZ6FEN5Be5QbSRCGR-40" value="Module, SoC" style="shape=partialRectangle;html=1;whiteSpace=wrap;connectable=0;strokeColor=#DFDFDF;overflow=hidden;fillColor=#FFFFFF;top=1;left=1;bottom=1;right=1;pointerEvents=1;fontSize=12;align=left;verticalAlign=middle;spacingLeft=10;spacingRight=10;fontFamily=Helvetica;fontColor=#333333;gradientColor=none;" vertex="1" parent="uidTZ6FEN5Be5QbSRCGR-38">
          <mxGeometry x="90" width="630" height="40" as="geometry">
            <mxRectangle width="630" height="40" as="alternateBounds" />
          </mxGeometry>
        </mxCell>
        <mxCell id="uidTZ6FEN5Be5QbSRCGR-41" style="shape=tableRow;horizontal=0;startSize=0;swimlaneHead=0;swimlaneBody=0;strokeColor=inherit;top=0;left=0;bottom=0;right=0;collapsible=0;dropTarget=0;fillColor=none;points=[[0,0.5],[1,0.5]];portConstraint=eastwest;fontSize=16;" vertex="1" parent="uidTZ6FEN5Be5QbSRCGR-28">
          <mxGeometry y="210" width="720" height="40" as="geometry" />
        </mxCell>
        <mxCell id="uidTZ6FEN5Be5QbSRCGR-42" value="Assumes" style="shape=partialRectangle;html=1;whiteSpace=wrap;connectable=0;strokeColor=#DFDFDF;overflow=hidden;fillColor=#F7F7F7;top=1;left=1;bottom=1;right=1;pointerEvents=1;fontSize=12;align=left;verticalAlign=middle;spacingLeft=10;spacingRight=10;fontFamily=Helvetica;fontColor=#333333;gradientColor=none;" vertex="1" parent="uidTZ6FEN5Be5QbSRCGR-41">
          <mxGeometry width="90" height="40" as="geometry">
            <mxRectangle width="90" height="40" as="alternateBounds" />
          </mxGeometry>
        </mxCell>
        <mxCell id="uidTZ6FEN5Be5QbSRCGR-43" value="The Module is in the Charging or Discharging state" style="shape=partialRectangle;html=1;whiteSpace=wrap;connectable=0;strokeColor=#DFDFDF;overflow=hidden;fillColor=#FFFFFF;top=1;left=1;bottom=1;right=1;pointerEvents=1;fontSize=12;align=left;verticalAlign=middle;spacingLeft=10;spacingRight=10;fontFamily=Helvetica;fontColor=#333333;gradientColor=none;" vertex="1" parent="uidTZ6FEN5Be5QbSRCGR-41">
          <mxGeometry x="90" width="630" height="40" as="geometry">
            <mxRectangle width="630" height="40" as="alternateBounds" />
          </mxGeometry>
        </mxCell>
        <mxCell id="uidTZ6FEN5Be5QbSRCGR-44" style="shape=tableRow;horizontal=0;startSize=0;swimlaneHead=0;swimlaneBody=0;strokeColor=inherit;top=0;left=0;bottom=0;right=0;collapsible=0;dropTarget=0;fillColor=none;points=[[0,0.5],[1,0.5]];portConstraint=eastwest;fontSize=16;" vertex="1" parent="uidTZ6FEN5Be5QbSRCGR-28">
          <mxGeometry y="250" width="720" height="130" as="geometry" />
        </mxCell>
        <mxCell id="uidTZ6FEN5Be5QbSRCGR-45" value="Result" style="shape=partialRectangle;html=1;whiteSpace=wrap;connectable=0;strokeColor=#DFDFDF;overflow=hidden;fillColor=#F7F7F7;top=1;left=1;bottom=1;right=1;pointerEvents=1;fontSize=12;align=left;verticalAlign=middle;spacingLeft=10;spacingRight=10;fontFamily=Helvetica;fontColor=#333333;gradientColor=none;" vertex="1" parent="uidTZ6FEN5Be5QbSRCGR-44">
          <mxGeometry width="90" height="130" as="geometry">
            <mxRectangle width="90" height="130" as="alternateBounds" />
          </mxGeometry>
        </mxCell>
        <mxCell id="uidTZ6FEN5Be5QbSRCGR-46" value="if Module is in the Charging state and SoC &amp;gt; 0&lt;div&gt;&lt;span style=&quot;white-space: pre;&quot;&gt;&#x9;&lt;/span&gt;Module stays in the same state and &lt;u&gt;SoC is increased&lt;/u&gt;&lt;br&gt;&lt;/div&gt;&lt;div&gt;if Moudle is in the Charging state and SoC &amp;gt;= capacity&lt;/div&gt;&lt;div&gt;&lt;span style=&quot;white-space: pre;&quot;&gt;&#x9;&lt;/span&gt;Module is in the Idle state&lt;br&gt;&lt;/div&gt;&lt;div&gt;if Module is in the Discharging state and SoC &amp;gt; 0&lt;div&gt;&lt;span style=&quot;white-space: pre;&quot;&gt;&#x9;&lt;/span&gt;Module stays in the same state and &lt;u&gt;SoC is decreased&lt;/u&gt;&lt;br&gt;&lt;/div&gt;&lt;div&gt;if Moudle is in the Discharging state and SoC == 0&lt;/div&gt;&lt;div&gt;&lt;span style=&quot;white-space: pre;&quot;&gt;&#x9;&lt;/span&gt;Module is in the Idle state&lt;/div&gt;&lt;/div&gt;" style="shape=partialRectangle;html=1;whiteSpace=wrap;connectable=0;strokeColor=#DFDFDF;overflow=hidden;fillColor=#FFFFFF;top=1;left=1;bottom=1;right=1;pointerEvents=1;fontSize=12;align=left;verticalAlign=middle;spacingLeft=10;spacingRight=10;fontFamily=Helvetica;fontColor=#333333;gradientColor=none;" vertex="1" parent="uidTZ6FEN5Be5QbSRCGR-44">
          <mxGeometry x="90" width="630" height="130" as="geometry">
            <mxRectangle width="630" height="130" as="alternateBounds" />
          </mxGeometry>
        </mxCell>
        <mxCell id="uidTZ6FEN5Be5QbSRCGR-47" value="" style="shape=table;startSize=0;container=1;collapsible=0;childLayout=tableLayout;fontSize=16;rounded=0;strokeColor=default;swimlaneFillColor=none;gradientColor=none;" vertex="1" parent="1">
          <mxGeometry x="920" y="480" width="680" height="200" as="geometry" />
        </mxCell>
        <mxCell id="uidTZ6FEN5Be5QbSRCGR-48" value="" style="shape=tableRow;horizontal=0;startSize=0;swimlaneHead=0;swimlaneBody=0;strokeColor=inherit;top=0;left=0;bottom=0;right=0;collapsible=0;dropTarget=0;fillColor=none;points=[[0,0.5],[1,0.5]];portConstraint=eastwest;fontSize=16;" vertex="1" parent="uidTZ6FEN5Be5QbSRCGR-47">
          <mxGeometry width="680" height="40" as="geometry" />
        </mxCell>
        <mxCell id="uidTZ6FEN5Be5QbSRCGR-49" value="&lt;b&gt;Name&lt;/b&gt;" style="shape=partialRectangle;html=1;whiteSpace=wrap;connectable=0;strokeColor=#DFDFDF;overflow=hidden;fillColor=#F7F7F7;top=1;left=1;bottom=1;right=1;pointerEvents=1;fontSize=12;align=left;verticalAlign=middle;spacingLeft=10;spacingRight=10;fontFamily=Helvetica;fontColor=#333333;gradientColor=none;" vertex="1" parent="uidTZ6FEN5Be5QbSRCGR-48">
          <mxGeometry width="90" height="40" as="geometry">
            <mxRectangle width="90" height="40" as="alternateBounds" />
          </mxGeometry>
        </mxCell>
        <mxCell id="uidTZ6FEN5Be5QbSRCGR-50" value="&lt;b&gt;plugIn&lt;/b&gt;" style="shape=partialRectangle;html=1;whiteSpace=wrap;connectable=0;strokeColor=#DFDFDF;overflow=hidden;fillColor=#F7F7F7;top=1;left=1;bottom=1;right=1;pointerEvents=1;fontSize=12;align=left;verticalAlign=middle;spacingLeft=10;spacingRight=10;fontFamily=Helvetica;fontColor=#333333;gradientColor=none;" vertex="1" parent="uidTZ6FEN5Be5QbSRCGR-48">
          <mxGeometry x="90" width="590" height="40" as="geometry">
            <mxRectangle width="590" height="40" as="alternateBounds" />
          </mxGeometry>
        </mxCell>
        <mxCell id="uidTZ6FEN5Be5QbSRCGR-51" value="" style="shape=tableRow;horizontal=0;startSize=0;swimlaneHead=0;swimlaneBody=0;strokeColor=inherit;top=0;left=0;bottom=0;right=0;collapsible=0;dropTarget=0;fillColor=none;points=[[0,0.5],[1,0.5]];portConstraint=eastwest;fontSize=16;" vertex="1" parent="uidTZ6FEN5Be5QbSRCGR-47">
          <mxGeometry y="40" width="680" height="40" as="geometry" />
        </mxCell>
        <mxCell id="uidTZ6FEN5Be5QbSRCGR-52" value="Description" style="shape=partialRectangle;html=1;whiteSpace=wrap;connectable=0;strokeColor=#DFDFDF;overflow=hidden;fillColor=#F7F7F7;top=1;left=1;bottom=1;right=1;pointerEvents=1;fontSize=12;align=left;verticalAlign=middle;spacingLeft=10;spacingRight=10;fontFamily=Helvetica;fontColor=#333333;gradientColor=none;" vertex="1" parent="uidTZ6FEN5Be5QbSRCGR-51">
          <mxGeometry width="90" height="40" as="geometry">
            <mxRectangle width="90" height="40" as="alternateBounds" />
          </mxGeometry>
        </mxCell>
        <mxCell id="uidTZ6FEN5Be5QbSRCGR-53" value="As an exterior event, moves the Module to the Charging state from the Idle state" style="shape=partialRectangle;html=1;whiteSpace=wrap;connectable=0;strokeColor=#DFDFDF;overflow=hidden;fillColor=#FFFFFF;top=1;left=1;bottom=1;right=1;pointerEvents=1;fontSize=12;align=left;verticalAlign=middle;spacingLeft=10;spacingRight=10;fontFamily=Helvetica;fontColor=#333333;gradientColor=none;" vertex="1" parent="uidTZ6FEN5Be5QbSRCGR-51">
          <mxGeometry x="90" width="590" height="40" as="geometry">
            <mxRectangle width="590" height="40" as="alternateBounds" />
          </mxGeometry>
        </mxCell>
        <mxCell id="uidTZ6FEN5Be5QbSRCGR-54" style="shape=tableRow;horizontal=0;startSize=0;swimlaneHead=0;swimlaneBody=0;strokeColor=inherit;top=0;left=0;bottom=0;right=0;collapsible=0;dropTarget=0;fillColor=none;points=[[0,0.5],[1,0.5]];portConstraint=eastwest;fontSize=16;" vertex="1" parent="uidTZ6FEN5Be5QbSRCGR-47">
          <mxGeometry y="80" width="680" height="40" as="geometry" />
        </mxCell>
        <mxCell id="uidTZ6FEN5Be5QbSRCGR-55" value="Changes" style="shape=partialRectangle;html=1;whiteSpace=wrap;connectable=0;strokeColor=#DFDFDF;overflow=hidden;fillColor=#F7F7F7;top=1;left=1;bottom=1;right=1;pointerEvents=1;fontSize=12;align=left;verticalAlign=middle;spacingLeft=10;spacingRight=10;fontFamily=Helvetica;fontColor=#333333;gradientColor=none;" vertex="1" parent="uidTZ6FEN5Be5QbSRCGR-54">
          <mxGeometry width="90" height="40" as="geometry">
            <mxRectangle width="90" height="40" as="alternateBounds" />
          </mxGeometry>
        </mxCell>
        <mxCell id="uidTZ6FEN5Be5QbSRCGR-56" value="Module, SoC" style="shape=partialRectangle;html=1;whiteSpace=wrap;connectable=0;strokeColor=#DFDFDF;overflow=hidden;fillColor=#FFFFFF;top=1;left=1;bottom=1;right=1;pointerEvents=1;fontSize=12;align=left;verticalAlign=middle;spacingLeft=10;spacingRight=10;fontFamily=Helvetica;fontColor=#333333;gradientColor=none;" vertex="1" parent="uidTZ6FEN5Be5QbSRCGR-54">
          <mxGeometry x="90" width="590" height="40" as="geometry">
            <mxRectangle width="590" height="40" as="alternateBounds" />
          </mxGeometry>
        </mxCell>
        <mxCell id="uidTZ6FEN5Be5QbSRCGR-57" style="shape=tableRow;horizontal=0;startSize=0;swimlaneHead=0;swimlaneBody=0;strokeColor=inherit;top=0;left=0;bottom=0;right=0;collapsible=0;dropTarget=0;fillColor=none;points=[[0,0.5],[1,0.5]];portConstraint=eastwest;fontSize=16;" vertex="1" parent="uidTZ6FEN5Be5QbSRCGR-47">
          <mxGeometry y="120" width="680" height="40" as="geometry" />
        </mxCell>
        <mxCell id="uidTZ6FEN5Be5QbSRCGR-58" value="Assumes" style="shape=partialRectangle;html=1;whiteSpace=wrap;connectable=0;strokeColor=#DFDFDF;overflow=hidden;fillColor=#F7F7F7;top=1;left=1;bottom=1;right=1;pointerEvents=1;fontSize=12;align=left;verticalAlign=middle;spacingLeft=10;spacingRight=10;fontFamily=Helvetica;fontColor=#333333;gradientColor=none;" vertex="1" parent="uidTZ6FEN5Be5QbSRCGR-57">
          <mxGeometry width="90" height="40" as="geometry">
            <mxRectangle width="90" height="40" as="alternateBounds" />
          </mxGeometry>
        </mxCell>
        <mxCell id="uidTZ6FEN5Be5QbSRCGR-59" value="The Module is in the Idle state" style="shape=partialRectangle;html=1;whiteSpace=wrap;connectable=0;strokeColor=#DFDFDF;overflow=hidden;fillColor=#FFFFFF;top=1;left=1;bottom=1;right=1;pointerEvents=1;fontSize=12;align=left;verticalAlign=middle;spacingLeft=10;spacingRight=10;fontFamily=Helvetica;fontColor=#333333;gradientColor=none;" vertex="1" parent="uidTZ6FEN5Be5QbSRCGR-57">
          <mxGeometry x="90" width="590" height="40" as="geometry">
            <mxRectangle width="590" height="40" as="alternateBounds" />
          </mxGeometry>
        </mxCell>
        <mxCell id="uidTZ6FEN5Be5QbSRCGR-60" style="shape=tableRow;horizontal=0;startSize=0;swimlaneHead=0;swimlaneBody=0;strokeColor=inherit;top=0;left=0;bottom=0;right=0;collapsible=0;dropTarget=0;fillColor=none;points=[[0,0.5],[1,0.5]];portConstraint=eastwest;fontSize=16;" vertex="1" parent="uidTZ6FEN5Be5QbSRCGR-47">
          <mxGeometry y="160" width="680" height="40" as="geometry" />
        </mxCell>
        <mxCell id="uidTZ6FEN5Be5QbSRCGR-61" value="Result" style="shape=partialRectangle;html=1;whiteSpace=wrap;connectable=0;strokeColor=#DFDFDF;overflow=hidden;fillColor=#F7F7F7;top=1;left=1;bottom=1;right=1;pointerEvents=1;fontSize=12;align=left;verticalAlign=middle;spacingLeft=10;spacingRight=10;fontFamily=Helvetica;fontColor=#333333;gradientColor=none;" vertex="1" parent="uidTZ6FEN5Be5QbSRCGR-60">
          <mxGeometry width="90" height="40" as="geometry">
            <mxRectangle width="90" height="40" as="alternateBounds" />
          </mxGeometry>
        </mxCell>
        <mxCell id="uidTZ6FEN5Be5QbSRCGR-62" value="the Module is in the Charging state" style="shape=partialRectangle;html=1;whiteSpace=wrap;connectable=0;strokeColor=#DFDFDF;overflow=hidden;fillColor=#FFFFFF;top=1;left=1;bottom=1;right=1;pointerEvents=1;fontSize=12;align=left;verticalAlign=middle;spacingLeft=10;spacingRight=10;fontFamily=Helvetica;fontColor=#333333;gradientColor=none;" vertex="1" parent="uidTZ6FEN5Be5QbSRCGR-60">
          <mxGeometry x="90" width="590" height="40" as="geometry">
            <mxRectangle width="590" height="40" as="alternateBounds" />
          </mxGeometry>
        </mxCell>
        <mxCell id="uidTZ6FEN5Be5QbSRCGR-63" value="" style="shape=table;startSize=0;container=1;collapsible=0;childLayout=tableLayout;fontSize=16;rounded=0;strokeColor=default;swimlaneFillColor=none;gradientColor=none;" vertex="1" parent="1">
          <mxGeometry x="920" y="760" width="680" height="200" as="geometry" />
        </mxCell>
        <mxCell id="uidTZ6FEN5Be5QbSRCGR-64" value="" style="shape=tableRow;horizontal=0;startSize=0;swimlaneHead=0;swimlaneBody=0;strokeColor=inherit;top=0;left=0;bottom=0;right=0;collapsible=0;dropTarget=0;fillColor=none;points=[[0,0.5],[1,0.5]];portConstraint=eastwest;fontSize=16;" vertex="1" parent="uidTZ6FEN5Be5QbSRCGR-63">
          <mxGeometry width="680" height="40" as="geometry" />
        </mxCell>
        <mxCell id="uidTZ6FEN5Be5QbSRCGR-65" value="&lt;b&gt;Name&lt;/b&gt;" style="shape=partialRectangle;html=1;whiteSpace=wrap;connectable=0;strokeColor=#DFDFDF;overflow=hidden;fillColor=#F7F7F7;top=1;left=1;bottom=1;right=1;pointerEvents=1;fontSize=12;align=left;verticalAlign=middle;spacingLeft=10;spacingRight=10;fontFamily=Helvetica;fontColor=#333333;gradientColor=none;" vertex="1" parent="uidTZ6FEN5Be5QbSRCGR-64">
          <mxGeometry width="90" height="40" as="geometry">
            <mxRectangle width="90" height="40" as="alternateBounds" />
          </mxGeometry>
        </mxCell>
        <mxCell id="uidTZ6FEN5Be5QbSRCGR-66" value="&lt;b&gt;unplug&lt;/b&gt;" style="shape=partialRectangle;html=1;whiteSpace=wrap;connectable=0;strokeColor=#DFDFDF;overflow=hidden;fillColor=#F7F7F7;top=1;left=1;bottom=1;right=1;pointerEvents=1;fontSize=12;align=left;verticalAlign=middle;spacingLeft=10;spacingRight=10;fontFamily=Helvetica;fontColor=#333333;gradientColor=none;" vertex="1" parent="uidTZ6FEN5Be5QbSRCGR-64">
          <mxGeometry x="90" width="590" height="40" as="geometry">
            <mxRectangle width="590" height="40" as="alternateBounds" />
          </mxGeometry>
        </mxCell>
        <mxCell id="uidTZ6FEN5Be5QbSRCGR-67" value="" style="shape=tableRow;horizontal=0;startSize=0;swimlaneHead=0;swimlaneBody=0;strokeColor=inherit;top=0;left=0;bottom=0;right=0;collapsible=0;dropTarget=0;fillColor=none;points=[[0,0.5],[1,0.5]];portConstraint=eastwest;fontSize=16;" vertex="1" parent="uidTZ6FEN5Be5QbSRCGR-63">
          <mxGeometry y="40" width="680" height="40" as="geometry" />
        </mxCell>
        <mxCell id="uidTZ6FEN5Be5QbSRCGR-68" value="Description" style="shape=partialRectangle;html=1;whiteSpace=wrap;connectable=0;strokeColor=#DFDFDF;overflow=hidden;fillColor=#F7F7F7;top=1;left=1;bottom=1;right=1;pointerEvents=1;fontSize=12;align=left;verticalAlign=middle;spacingLeft=10;spacingRight=10;fontFamily=Helvetica;fontColor=#333333;gradientColor=none;" vertex="1" parent="uidTZ6FEN5Be5QbSRCGR-67">
          <mxGeometry width="90" height="40" as="geometry">
            <mxRectangle width="90" height="40" as="alternateBounds" />
          </mxGeometry>
        </mxCell>
        <mxCell id="uidTZ6FEN5Be5QbSRCGR-69" value="As an exterior event, moves the Module to the Idle state from the Charging state" style="shape=partialRectangle;html=1;whiteSpace=wrap;connectable=0;strokeColor=#DFDFDF;overflow=hidden;fillColor=#FFFFFF;top=1;left=1;bottom=1;right=1;pointerEvents=1;fontSize=12;align=left;verticalAlign=middle;spacingLeft=10;spacingRight=10;fontFamily=Helvetica;fontColor=#333333;gradientColor=none;" vertex="1" parent="uidTZ6FEN5Be5QbSRCGR-67">
          <mxGeometry x="90" width="590" height="40" as="geometry">
            <mxRectangle width="590" height="40" as="alternateBounds" />
          </mxGeometry>
        </mxCell>
        <mxCell id="uidTZ6FEN5Be5QbSRCGR-70" style="shape=tableRow;horizontal=0;startSize=0;swimlaneHead=0;swimlaneBody=0;strokeColor=inherit;top=0;left=0;bottom=0;right=0;collapsible=0;dropTarget=0;fillColor=none;points=[[0,0.5],[1,0.5]];portConstraint=eastwest;fontSize=16;" vertex="1" parent="uidTZ6FEN5Be5QbSRCGR-63">
          <mxGeometry y="80" width="680" height="40" as="geometry" />
        </mxCell>
        <mxCell id="uidTZ6FEN5Be5QbSRCGR-71" value="Changes" style="shape=partialRectangle;html=1;whiteSpace=wrap;connectable=0;strokeColor=#DFDFDF;overflow=hidden;fillColor=#F7F7F7;top=1;left=1;bottom=1;right=1;pointerEvents=1;fontSize=12;align=left;verticalAlign=middle;spacingLeft=10;spacingRight=10;fontFamily=Helvetica;fontColor=#333333;gradientColor=none;" vertex="1" parent="uidTZ6FEN5Be5QbSRCGR-70">
          <mxGeometry width="90" height="40" as="geometry">
            <mxRectangle width="90" height="40" as="alternateBounds" />
          </mxGeometry>
        </mxCell>
        <mxCell id="uidTZ6FEN5Be5QbSRCGR-72" value="Module" style="shape=partialRectangle;html=1;whiteSpace=wrap;connectable=0;strokeColor=#DFDFDF;overflow=hidden;fillColor=#FFFFFF;top=1;left=1;bottom=1;right=1;pointerEvents=1;fontSize=12;align=left;verticalAlign=middle;spacingLeft=10;spacingRight=10;fontFamily=Helvetica;fontColor=#333333;gradientColor=none;" vertex="1" parent="uidTZ6FEN5Be5QbSRCGR-70">
          <mxGeometry x="90" width="590" height="40" as="geometry">
            <mxRectangle width="590" height="40" as="alternateBounds" />
          </mxGeometry>
        </mxCell>
        <mxCell id="uidTZ6FEN5Be5QbSRCGR-73" style="shape=tableRow;horizontal=0;startSize=0;swimlaneHead=0;swimlaneBody=0;strokeColor=inherit;top=0;left=0;bottom=0;right=0;collapsible=0;dropTarget=0;fillColor=none;points=[[0,0.5],[1,0.5]];portConstraint=eastwest;fontSize=16;" vertex="1" parent="uidTZ6FEN5Be5QbSRCGR-63">
          <mxGeometry y="120" width="680" height="40" as="geometry" />
        </mxCell>
        <mxCell id="uidTZ6FEN5Be5QbSRCGR-74" value="Assumes" style="shape=partialRectangle;html=1;whiteSpace=wrap;connectable=0;strokeColor=#DFDFDF;overflow=hidden;fillColor=#F7F7F7;top=1;left=1;bottom=1;right=1;pointerEvents=1;fontSize=12;align=left;verticalAlign=middle;spacingLeft=10;spacingRight=10;fontFamily=Helvetica;fontColor=#333333;gradientColor=none;" vertex="1" parent="uidTZ6FEN5Be5QbSRCGR-73">
          <mxGeometry width="90" height="40" as="geometry">
            <mxRectangle width="90" height="40" as="alternateBounds" />
          </mxGeometry>
        </mxCell>
        <mxCell id="uidTZ6FEN5Be5QbSRCGR-75" value="The module is in the Charging state" style="shape=partialRectangle;html=1;whiteSpace=wrap;connectable=0;strokeColor=#DFDFDF;overflow=hidden;fillColor=#FFFFFF;top=1;left=1;bottom=1;right=1;pointerEvents=1;fontSize=12;align=left;verticalAlign=middle;spacingLeft=10;spacingRight=10;fontFamily=Helvetica;fontColor=#333333;gradientColor=none;" vertex="1" parent="uidTZ6FEN5Be5QbSRCGR-73">
          <mxGeometry x="90" width="590" height="40" as="geometry">
            <mxRectangle width="590" height="40" as="alternateBounds" />
          </mxGeometry>
        </mxCell>
        <mxCell id="uidTZ6FEN5Be5QbSRCGR-76" style="shape=tableRow;horizontal=0;startSize=0;swimlaneHead=0;swimlaneBody=0;strokeColor=inherit;top=0;left=0;bottom=0;right=0;collapsible=0;dropTarget=0;fillColor=none;points=[[0,0.5],[1,0.5]];portConstraint=eastwest;fontSize=16;" vertex="1" parent="uidTZ6FEN5Be5QbSRCGR-63">
          <mxGeometry y="160" width="680" height="40" as="geometry" />
        </mxCell>
        <mxCell id="uidTZ6FEN5Be5QbSRCGR-77" value="Result" style="shape=partialRectangle;html=1;whiteSpace=wrap;connectable=0;strokeColor=#DFDFDF;overflow=hidden;fillColor=#F7F7F7;top=1;left=1;bottom=1;right=1;pointerEvents=1;fontSize=12;align=left;verticalAlign=middle;spacingLeft=10;spacingRight=10;fontFamily=Helvetica;fontColor=#333333;gradientColor=none;" vertex="1" parent="uidTZ6FEN5Be5QbSRCGR-76">
          <mxGeometry width="90" height="40" as="geometry">
            <mxRectangle width="90" height="40" as="alternateBounds" />
          </mxGeometry>
        </mxCell>
        <mxCell id="uidTZ6FEN5Be5QbSRCGR-78" value="the Module is in the Idle state" style="shape=partialRectangle;html=1;whiteSpace=wrap;connectable=0;strokeColor=#DFDFDF;overflow=hidden;fillColor=#FFFFFF;top=1;left=1;bottom=1;right=1;pointerEvents=1;fontSize=12;align=left;verticalAlign=middle;spacingLeft=10;spacingRight=10;fontFamily=Helvetica;fontColor=#333333;gradientColor=none;" vertex="1" parent="uidTZ6FEN5Be5QbSRCGR-76">
          <mxGeometry x="90" width="590" height="40" as="geometry">
            <mxRectangle width="590" height="40" as="alternateBounds" />
          </mxGeometry>
        </mxCell>
        <mxCell id="uidTZ6FEN5Be5QbSRCGR-79" value="" style="shape=table;startSize=0;container=1;collapsible=0;childLayout=tableLayout;fontSize=16;rounded=0;strokeColor=default;swimlaneFillColor=none;gradientColor=none;" vertex="1" parent="1">
          <mxGeometry x="1760" y="40" width="680" height="330" as="geometry" />
        </mxCell>
        <mxCell id="uidTZ6FEN5Be5QbSRCGR-80" value="" style="shape=tableRow;horizontal=0;startSize=0;swimlaneHead=0;swimlaneBody=0;strokeColor=inherit;top=0;left=0;bottom=0;right=0;collapsible=0;dropTarget=0;fillColor=none;points=[[0,0.5],[1,0.5]];portConstraint=eastwest;fontSize=16;" vertex="1" parent="uidTZ6FEN5Be5QbSRCGR-79">
          <mxGeometry width="680" height="40" as="geometry" />
        </mxCell>
        <mxCell id="uidTZ6FEN5Be5QbSRCGR-81" value="&lt;b&gt;Name&lt;/b&gt;" style="shape=partialRectangle;html=1;whiteSpace=wrap;connectable=0;strokeColor=#DFDFDF;overflow=hidden;fillColor=#F7F7F7;top=1;left=1;bottom=1;right=1;pointerEvents=1;fontSize=12;align=left;verticalAlign=middle;spacingLeft=10;spacingRight=10;fontFamily=Helvetica;fontColor=#333333;gradientColor=none;" vertex="1" parent="uidTZ6FEN5Be5QbSRCGR-80">
          <mxGeometry width="90" height="40" as="geometry">
            <mxRectangle width="90" height="40" as="alternateBounds" />
          </mxGeometry>
        </mxCell>
        <mxCell id="uidTZ6FEN5Be5QbSRCGR-82" value="&lt;b&gt;accelerating&lt;/b&gt;" style="shape=partialRectangle;html=1;whiteSpace=wrap;connectable=0;strokeColor=#DFDFDF;overflow=hidden;fillColor=#F7F7F7;top=1;left=1;bottom=1;right=1;pointerEvents=1;fontSize=12;align=left;verticalAlign=middle;spacingLeft=10;spacingRight=10;fontFamily=Helvetica;fontColor=#333333;gradientColor=none;" vertex="1" parent="uidTZ6FEN5Be5QbSRCGR-80">
          <mxGeometry x="90" width="590" height="40" as="geometry">
            <mxRectangle width="590" height="40" as="alternateBounds" />
          </mxGeometry>
        </mxCell>
        <mxCell id="uidTZ6FEN5Be5QbSRCGR-83" value="" style="shape=tableRow;horizontal=0;startSize=0;swimlaneHead=0;swimlaneBody=0;strokeColor=inherit;top=0;left=0;bottom=0;right=0;collapsible=0;dropTarget=0;fillColor=none;points=[[0,0.5],[1,0.5]];portConstraint=eastwest;fontSize=16;" vertex="1" parent="uidTZ6FEN5Be5QbSRCGR-79">
          <mxGeometry y="40" width="680" height="60" as="geometry" />
        </mxCell>
        <mxCell id="uidTZ6FEN5Be5QbSRCGR-84" value="Description" style="shape=partialRectangle;html=1;whiteSpace=wrap;connectable=0;strokeColor=#DFDFDF;overflow=hidden;fillColor=#F7F7F7;top=1;left=1;bottom=1;right=1;pointerEvents=1;fontSize=12;align=left;verticalAlign=middle;spacingLeft=10;spacingRight=10;fontFamily=Helvetica;fontColor=#333333;gradientColor=none;" vertex="1" parent="uidTZ6FEN5Be5QbSRCGR-83">
          <mxGeometry width="90" height="60" as="geometry">
            <mxRectangle width="90" height="60" as="alternateBounds" />
          </mxGeometry>
        </mxCell>
        <mxCell id="uidTZ6FEN5Be5QbSRCGR-85" value="As an exterior event, if the Module is in the Idle state and the SoC is more than zero, it moves the Module to the Discharging state from the Idle state. If the Module is in the Idle state and the SoC is more than zero, it moves to the Discharging. Otherwise it does nothing." style="shape=partialRectangle;html=1;whiteSpace=wrap;connectable=0;strokeColor=#DFDFDF;overflow=hidden;fillColor=#FFFFFF;top=1;left=1;bottom=1;right=1;pointerEvents=1;fontSize=12;align=left;verticalAlign=middle;spacingLeft=10;spacingRight=10;fontFamily=Helvetica;fontColor=#333333;gradientColor=none;" vertex="1" parent="uidTZ6FEN5Be5QbSRCGR-83">
          <mxGeometry x="90" width="590" height="60" as="geometry">
            <mxRectangle width="590" height="60" as="alternateBounds" />
          </mxGeometry>
        </mxCell>
        <mxCell id="uidTZ6FEN5Be5QbSRCGR-86" value="" style="shape=tableRow;horizontal=0;startSize=0;swimlaneHead=0;swimlaneBody=0;strokeColor=inherit;top=0;left=0;bottom=0;right=0;collapsible=0;dropTarget=0;fillColor=none;points=[[0,0.5],[1,0.5]];portConstraint=eastwest;fontSize=16;" vertex="1" parent="uidTZ6FEN5Be5QbSRCGR-79">
          <mxGeometry y="100" width="680" height="40" as="geometry" />
        </mxCell>
        <mxCell id="uidTZ6FEN5Be5QbSRCGR-87" value="Reads" style="shape=partialRectangle;html=1;whiteSpace=wrap;connectable=0;strokeColor=#DFDFDF;overflow=hidden;fillColor=#F7F7F7;top=1;left=1;bottom=1;right=1;pointerEvents=1;fontSize=12;align=left;verticalAlign=middle;spacingLeft=10;spacingRight=10;fontFamily=Helvetica;fontColor=#333333;gradientColor=none;" vertex="1" parent="uidTZ6FEN5Be5QbSRCGR-86">
          <mxGeometry width="90" height="40" as="geometry">
            <mxRectangle width="90" height="40" as="alternateBounds" />
          </mxGeometry>
        </mxCell>
        <mxCell id="uidTZ6FEN5Be5QbSRCGR-88" value="SoC&amp;nbsp;" style="shape=partialRectangle;html=1;whiteSpace=wrap;connectable=0;strokeColor=#DFDFDF;overflow=hidden;fillColor=#FFFFFF;top=1;left=1;bottom=1;right=1;pointerEvents=1;fontSize=12;align=left;verticalAlign=middle;spacingLeft=10;spacingRight=10;fontFamily=Helvetica;fontColor=#333333;gradientColor=none;" vertex="1" parent="uidTZ6FEN5Be5QbSRCGR-86">
          <mxGeometry x="90" width="590" height="40" as="geometry">
            <mxRectangle width="590" height="40" as="alternateBounds" />
          </mxGeometry>
        </mxCell>
        <mxCell id="uidTZ6FEN5Be5QbSRCGR-89" style="shape=tableRow;horizontal=0;startSize=0;swimlaneHead=0;swimlaneBody=0;strokeColor=inherit;top=0;left=0;bottom=0;right=0;collapsible=0;dropTarget=0;fillColor=none;points=[[0,0.5],[1,0.5]];portConstraint=eastwest;fontSize=16;" vertex="1" parent="uidTZ6FEN5Be5QbSRCGR-79">
          <mxGeometry y="140" width="680" height="40" as="geometry" />
        </mxCell>
        <mxCell id="uidTZ6FEN5Be5QbSRCGR-90" value="Receives" style="shape=partialRectangle;html=1;whiteSpace=wrap;connectable=0;strokeColor=#DFDFDF;overflow=hidden;fillColor=#F7F7F7;top=1;left=1;bottom=1;right=1;pointerEvents=1;fontSize=12;align=left;verticalAlign=middle;spacingLeft=10;spacingRight=10;fontFamily=Helvetica;fontColor=#333333;gradientColor=none;" vertex="1" parent="uidTZ6FEN5Be5QbSRCGR-89">
          <mxGeometry width="90" height="40" as="geometry">
            <mxRectangle width="90" height="40" as="alternateBounds" />
          </mxGeometry>
        </mxCell>
        <mxCell id="uidTZ6FEN5Be5QbSRCGR-91" value="vehicleStatus: Enum (OFF, READY_TO_USE)" style="shape=partialRectangle;html=1;whiteSpace=wrap;connectable=0;strokeColor=#DFDFDF;overflow=hidden;fillColor=#FFFFFF;top=1;left=1;bottom=1;right=1;pointerEvents=1;fontSize=12;align=left;verticalAlign=middle;spacingLeft=10;spacingRight=10;fontFamily=Helvetica;fontColor=#333333;gradientColor=none;" vertex="1" parent="uidTZ6FEN5Be5QbSRCGR-89">
          <mxGeometry x="90" width="590" height="40" as="geometry">
            <mxRectangle width="590" height="40" as="alternateBounds" />
          </mxGeometry>
        </mxCell>
        <mxCell id="uidTZ6FEN5Be5QbSRCGR-92" style="shape=tableRow;horizontal=0;startSize=0;swimlaneHead=0;swimlaneBody=0;strokeColor=inherit;top=0;left=0;bottom=0;right=0;collapsible=0;dropTarget=0;fillColor=none;points=[[0,0.5],[1,0.5]];portConstraint=eastwest;fontSize=16;" vertex="1" parent="uidTZ6FEN5Be5QbSRCGR-79">
          <mxGeometry y="180" width="680" height="40" as="geometry" />
        </mxCell>
        <mxCell id="uidTZ6FEN5Be5QbSRCGR-93" value="Changes" style="shape=partialRectangle;html=1;whiteSpace=wrap;connectable=0;strokeColor=#DFDFDF;overflow=hidden;fillColor=#F7F7F7;top=1;left=1;bottom=1;right=1;pointerEvents=1;fontSize=12;align=left;verticalAlign=middle;spacingLeft=10;spacingRight=10;fontFamily=Helvetica;fontColor=#333333;gradientColor=none;" vertex="1" parent="uidTZ6FEN5Be5QbSRCGR-92">
          <mxGeometry width="90" height="40" as="geometry">
            <mxRectangle width="90" height="40" as="alternateBounds" />
          </mxGeometry>
        </mxCell>
        <mxCell id="uidTZ6FEN5Be5QbSRCGR-94" value="Module" style="shape=partialRectangle;html=1;whiteSpace=wrap;connectable=0;strokeColor=#DFDFDF;overflow=hidden;fillColor=#FFFFFF;top=1;left=1;bottom=1;right=1;pointerEvents=1;fontSize=12;align=left;verticalAlign=middle;spacingLeft=10;spacingRight=10;fontFamily=Helvetica;fontColor=#333333;gradientColor=none;" vertex="1" parent="uidTZ6FEN5Be5QbSRCGR-92">
          <mxGeometry x="90" width="590" height="40" as="geometry">
            <mxRectangle width="590" height="40" as="alternateBounds" />
          </mxGeometry>
        </mxCell>
        <mxCell id="uidTZ6FEN5Be5QbSRCGR-95" style="shape=tableRow;horizontal=0;startSize=0;swimlaneHead=0;swimlaneBody=0;strokeColor=inherit;top=0;left=0;bottom=0;right=0;collapsible=0;dropTarget=0;fillColor=none;points=[[0,0.5],[1,0.5]];portConstraint=eastwest;fontSize=16;" vertex="1" parent="uidTZ6FEN5Be5QbSRCGR-79">
          <mxGeometry y="220" width="680" height="40" as="geometry" />
        </mxCell>
        <mxCell id="uidTZ6FEN5Be5QbSRCGR-96" value="Assumes" style="shape=partialRectangle;html=1;whiteSpace=wrap;connectable=0;strokeColor=#DFDFDF;overflow=hidden;fillColor=#F7F7F7;top=1;left=1;bottom=1;right=1;pointerEvents=1;fontSize=12;align=left;verticalAlign=middle;spacingLeft=10;spacingRight=10;fontFamily=Helvetica;fontColor=#333333;gradientColor=none;" vertex="1" parent="uidTZ6FEN5Be5QbSRCGR-95">
          <mxGeometry width="90" height="40" as="geometry">
            <mxRectangle width="90" height="40" as="alternateBounds" />
          </mxGeometry>
        </mxCell>
        <mxCell id="uidTZ6FEN5Be5QbSRCGR-97" value="The Module is in the Idle state and vehicleStatus is READY_TO_USE&amp;nbsp;" style="shape=partialRectangle;html=1;whiteSpace=wrap;connectable=0;strokeColor=#DFDFDF;overflow=hidden;fillColor=#FFFFFF;top=1;left=1;bottom=1;right=1;pointerEvents=1;fontSize=12;align=left;verticalAlign=middle;spacingLeft=10;spacingRight=10;fontFamily=Helvetica;fontColor=#333333;gradientColor=none;" vertex="1" parent="uidTZ6FEN5Be5QbSRCGR-95">
          <mxGeometry x="90" width="590" height="40" as="geometry">
            <mxRectangle width="590" height="40" as="alternateBounds" />
          </mxGeometry>
        </mxCell>
        <mxCell id="uidTZ6FEN5Be5QbSRCGR-98" style="shape=tableRow;horizontal=0;startSize=0;swimlaneHead=0;swimlaneBody=0;strokeColor=inherit;top=0;left=0;bottom=0;right=0;collapsible=0;dropTarget=0;fillColor=none;points=[[0,0.5],[1,0.5]];portConstraint=eastwest;fontSize=16;" vertex="1" parent="uidTZ6FEN5Be5QbSRCGR-79">
          <mxGeometry y="260" width="680" height="70" as="geometry" />
        </mxCell>
        <mxCell id="uidTZ6FEN5Be5QbSRCGR-99" value="Result" style="shape=partialRectangle;html=1;whiteSpace=wrap;connectable=0;strokeColor=#DFDFDF;overflow=hidden;fillColor=#F7F7F7;top=1;left=1;bottom=1;right=1;pointerEvents=1;fontSize=12;align=left;verticalAlign=middle;spacingLeft=10;spacingRight=10;fontFamily=Helvetica;fontColor=#333333;gradientColor=none;" vertex="1" parent="uidTZ6FEN5Be5QbSRCGR-98">
          <mxGeometry width="90" height="70" as="geometry">
            <mxRectangle width="90" height="70" as="alternateBounds" />
          </mxGeometry>
        </mxCell>
        <mxCell id="uidTZ6FEN5Be5QbSRCGR-100" value="if Module&amp;nbsp;is in the Idle or charging and also the vehicle status is READY_TO_USE&lt;div&gt;&lt;span style=&quot;white-space: pre;&quot;&gt;&#x9;&lt;/span&gt;Module is in the Discharging state&lt;/div&gt;&lt;div&gt;else&lt;/div&gt;&lt;div&gt;&lt;span style=&quot;white-space: pre;&quot;&gt;&#x9;&lt;/span&gt;Module stays in the same state&lt;br&gt;&lt;/div&gt;" style="shape=partialRectangle;html=1;whiteSpace=wrap;connectable=0;strokeColor=#DFDFDF;overflow=hidden;fillColor=#FFFFFF;top=1;left=1;bottom=1;right=1;pointerEvents=1;fontSize=12;align=left;verticalAlign=middle;spacingLeft=10;spacingRight=10;fontFamily=Helvetica;fontColor=#333333;gradientColor=none;" vertex="1" parent="uidTZ6FEN5Be5QbSRCGR-98">
          <mxGeometry x="90" width="590" height="70" as="geometry">
            <mxRectangle width="590" height="70" as="alternateBounds" />
          </mxGeometry>
        </mxCell>
        <mxCell id="uidTZ6FEN5Be5QbSRCGR-101" value="" style="shape=table;startSize=0;container=1;collapsible=0;childLayout=tableLayout;fontSize=16;rounded=0;strokeColor=default;swimlaneFillColor=none;gradientColor=none;" vertex="1" parent="1">
          <mxGeometry x="1760" y="440" width="680" height="200" as="geometry" />
        </mxCell>
        <mxCell id="uidTZ6FEN5Be5QbSRCGR-102" value="" style="shape=tableRow;horizontal=0;startSize=0;swimlaneHead=0;swimlaneBody=0;strokeColor=inherit;top=0;left=0;bottom=0;right=0;collapsible=0;dropTarget=0;fillColor=none;points=[[0,0.5],[1,0.5]];portConstraint=eastwest;fontSize=16;" vertex="1" parent="uidTZ6FEN5Be5QbSRCGR-101">
          <mxGeometry width="680" height="40" as="geometry" />
        </mxCell>
        <mxCell id="uidTZ6FEN5Be5QbSRCGR-103" value="&lt;b&gt;Name&lt;/b&gt;" style="shape=partialRectangle;html=1;whiteSpace=wrap;connectable=0;strokeColor=#DFDFDF;overflow=hidden;fillColor=#F7F7F7;top=1;left=1;bottom=1;right=1;pointerEvents=1;fontSize=12;align=left;verticalAlign=middle;spacingLeft=10;spacingRight=10;fontFamily=Helvetica;fontColor=#333333;gradientColor=none;" vertex="1" parent="uidTZ6FEN5Be5QbSRCGR-102">
          <mxGeometry width="90" height="40" as="geometry">
            <mxRectangle width="90" height="40" as="alternateBounds" />
          </mxGeometry>
        </mxCell>
        <mxCell id="uidTZ6FEN5Be5QbSRCGR-104" value="&lt;b&gt;brakeEnergyRecovery&lt;/b&gt;" style="shape=partialRectangle;html=1;whiteSpace=wrap;connectable=0;strokeColor=#DFDFDF;overflow=hidden;fillColor=#F7F7F7;top=1;left=1;bottom=1;right=1;pointerEvents=1;fontSize=12;align=left;verticalAlign=middle;spacingLeft=10;spacingRight=10;fontFamily=Helvetica;fontColor=#333333;gradientColor=none;" vertex="1" parent="uidTZ6FEN5Be5QbSRCGR-102">
          <mxGeometry x="90" width="590" height="40" as="geometry">
            <mxRectangle width="590" height="40" as="alternateBounds" />
          </mxGeometry>
        </mxCell>
        <mxCell id="uidTZ6FEN5Be5QbSRCGR-105" value="" style="shape=tableRow;horizontal=0;startSize=0;swimlaneHead=0;swimlaneBody=0;strokeColor=inherit;top=0;left=0;bottom=0;right=0;collapsible=0;dropTarget=0;fillColor=none;points=[[0,0.5],[1,0.5]];portConstraint=eastwest;fontSize=16;" vertex="1" parent="uidTZ6FEN5Be5QbSRCGR-101">
          <mxGeometry y="40" width="680" height="40" as="geometry" />
        </mxCell>
        <mxCell id="uidTZ6FEN5Be5QbSRCGR-106" value="Description" style="shape=partialRectangle;html=1;whiteSpace=wrap;connectable=0;strokeColor=#DFDFDF;overflow=hidden;fillColor=#F7F7F7;top=1;left=1;bottom=1;right=1;pointerEvents=1;fontSize=12;align=left;verticalAlign=middle;spacingLeft=10;spacingRight=10;fontFamily=Helvetica;fontColor=#333333;gradientColor=none;" vertex="1" parent="uidTZ6FEN5Be5QbSRCGR-105">
          <mxGeometry width="90" height="40" as="geometry">
            <mxRectangle width="90" height="40" as="alternateBounds" />
          </mxGeometry>
        </mxCell>
        <mxCell id="uidTZ6FEN5Be5QbSRCGR-107" value="As an exterior event, if the Module is in discharging while braking, it moves the Module to the charging&amp;nbsp; state from the Discharging state&lt;span style=&quot;white-space: pre;&quot;&gt;&#x9;&lt;/span&gt;" style="shape=partialRectangle;html=1;whiteSpace=wrap;connectable=0;strokeColor=#DFDFDF;overflow=hidden;fillColor=#FFFFFF;top=1;left=1;bottom=1;right=1;pointerEvents=1;fontSize=12;align=left;verticalAlign=middle;spacingLeft=10;spacingRight=10;fontFamily=Helvetica;fontColor=#333333;gradientColor=none;" vertex="1" parent="uidTZ6FEN5Be5QbSRCGR-105">
          <mxGeometry x="90" width="590" height="40" as="geometry">
            <mxRectangle width="590" height="40" as="alternateBounds" />
          </mxGeometry>
        </mxCell>
        <mxCell id="uidTZ6FEN5Be5QbSRCGR-108" style="shape=tableRow;horizontal=0;startSize=0;swimlaneHead=0;swimlaneBody=0;strokeColor=inherit;top=0;left=0;bottom=0;right=0;collapsible=0;dropTarget=0;fillColor=none;points=[[0,0.5],[1,0.5]];portConstraint=eastwest;fontSize=16;" vertex="1" parent="uidTZ6FEN5Be5QbSRCGR-101">
          <mxGeometry y="80" width="680" height="40" as="geometry" />
        </mxCell>
        <mxCell id="uidTZ6FEN5Be5QbSRCGR-109" value="Changes" style="shape=partialRectangle;html=1;whiteSpace=wrap;connectable=0;strokeColor=#DFDFDF;overflow=hidden;fillColor=#F7F7F7;top=1;left=1;bottom=1;right=1;pointerEvents=1;fontSize=12;align=left;verticalAlign=middle;spacingLeft=10;spacingRight=10;fontFamily=Helvetica;fontColor=#333333;gradientColor=none;" vertex="1" parent="uidTZ6FEN5Be5QbSRCGR-108">
          <mxGeometry width="90" height="40" as="geometry">
            <mxRectangle width="90" height="40" as="alternateBounds" />
          </mxGeometry>
        </mxCell>
        <mxCell id="uidTZ6FEN5Be5QbSRCGR-110" value="Module" style="shape=partialRectangle;html=1;whiteSpace=wrap;connectable=0;strokeColor=#DFDFDF;overflow=hidden;fillColor=#FFFFFF;top=1;left=1;bottom=1;right=1;pointerEvents=1;fontSize=12;align=left;verticalAlign=middle;spacingLeft=10;spacingRight=10;fontFamily=Helvetica;fontColor=#333333;gradientColor=none;" vertex="1" parent="uidTZ6FEN5Be5QbSRCGR-108">
          <mxGeometry x="90" width="590" height="40" as="geometry">
            <mxRectangle width="590" height="40" as="alternateBounds" />
          </mxGeometry>
        </mxCell>
        <mxCell id="uidTZ6FEN5Be5QbSRCGR-111" style="shape=tableRow;horizontal=0;startSize=0;swimlaneHead=0;swimlaneBody=0;strokeColor=inherit;top=0;left=0;bottom=0;right=0;collapsible=0;dropTarget=0;fillColor=none;points=[[0,0.5],[1,0.5]];portConstraint=eastwest;fontSize=16;" vertex="1" parent="uidTZ6FEN5Be5QbSRCGR-101">
          <mxGeometry y="120" width="680" height="40" as="geometry" />
        </mxCell>
        <mxCell id="uidTZ6FEN5Be5QbSRCGR-112" value="Assumes" style="shape=partialRectangle;html=1;whiteSpace=wrap;connectable=0;strokeColor=#DFDFDF;overflow=hidden;fillColor=#F7F7F7;top=1;left=1;bottom=1;right=1;pointerEvents=1;fontSize=12;align=left;verticalAlign=middle;spacingLeft=10;spacingRight=10;fontFamily=Helvetica;fontColor=#333333;gradientColor=none;" vertex="1" parent="uidTZ6FEN5Be5QbSRCGR-111">
          <mxGeometry width="90" height="40" as="geometry">
            <mxRectangle width="90" height="40" as="alternateBounds" />
          </mxGeometry>
        </mxCell>
        <mxCell id="uidTZ6FEN5Be5QbSRCGR-113" value="The Module is in the Dsicharging state" style="shape=partialRectangle;html=1;whiteSpace=wrap;connectable=0;strokeColor=#DFDFDF;overflow=hidden;fillColor=#FFFFFF;top=1;left=1;bottom=1;right=1;pointerEvents=1;fontSize=12;align=left;verticalAlign=middle;spacingLeft=10;spacingRight=10;fontFamily=Helvetica;fontColor=#333333;gradientColor=none;" vertex="1" parent="uidTZ6FEN5Be5QbSRCGR-111">
          <mxGeometry x="90" width="590" height="40" as="geometry">
            <mxRectangle width="590" height="40" as="alternateBounds" />
          </mxGeometry>
        </mxCell>
        <mxCell id="uidTZ6FEN5Be5QbSRCGR-114" style="shape=tableRow;horizontal=0;startSize=0;swimlaneHead=0;swimlaneBody=0;strokeColor=inherit;top=0;left=0;bottom=0;right=0;collapsible=0;dropTarget=0;fillColor=none;points=[[0,0.5],[1,0.5]];portConstraint=eastwest;fontSize=16;" vertex="1" parent="uidTZ6FEN5Be5QbSRCGR-101">
          <mxGeometry y="160" width="680" height="40" as="geometry" />
        </mxCell>
        <mxCell id="uidTZ6FEN5Be5QbSRCGR-115" value="Result" style="shape=partialRectangle;html=1;whiteSpace=wrap;connectable=0;strokeColor=#DFDFDF;overflow=hidden;fillColor=#F7F7F7;top=1;left=1;bottom=1;right=1;pointerEvents=1;fontSize=12;align=left;verticalAlign=middle;spacingLeft=10;spacingRight=10;fontFamily=Helvetica;fontColor=#333333;gradientColor=none;" vertex="1" parent="uidTZ6FEN5Be5QbSRCGR-114">
          <mxGeometry width="90" height="40" as="geometry">
            <mxRectangle width="90" height="40" as="alternateBounds" />
          </mxGeometry>
        </mxCell>
        <mxCell id="uidTZ6FEN5Be5QbSRCGR-116" value="the Module is in the Charging state" style="shape=partialRectangle;html=1;whiteSpace=wrap;connectable=0;strokeColor=#DFDFDF;overflow=hidden;fillColor=#FFFFFF;top=1;left=1;bottom=1;right=1;pointerEvents=1;fontSize=12;align=left;verticalAlign=middle;spacingLeft=10;spacingRight=10;fontFamily=Helvetica;fontColor=#333333;gradientColor=none;" vertex="1" parent="uidTZ6FEN5Be5QbSRCGR-114">
          <mxGeometry x="90" width="590" height="40" as="geometry">
            <mxRectangle width="590" height="40" as="alternateBounds" />
          </mxGeometry>
        </mxCell>
        <mxCell id="uidTZ6FEN5Be5QbSRCGR-117" value="" style="shape=table;startSize=0;container=1;collapsible=0;childLayout=tableLayout;fontSize=16;rounded=0;strokeColor=default;swimlaneFillColor=none;gradientColor=none;" vertex="1" parent="1">
          <mxGeometry x="3480" y="790" width="680" height="240" as="geometry" />
        </mxCell>
        <mxCell id="uidTZ6FEN5Be5QbSRCGR-118" value="" style="shape=tableRow;horizontal=0;startSize=0;swimlaneHead=0;swimlaneBody=0;strokeColor=inherit;top=0;left=0;bottom=0;right=0;collapsible=0;dropTarget=0;fillColor=none;points=[[0,0.5],[1,0.5]];portConstraint=eastwest;fontSize=16;" vertex="1" parent="uidTZ6FEN5Be5QbSRCGR-117">
          <mxGeometry width="680" height="40" as="geometry" />
        </mxCell>
        <mxCell id="uidTZ6FEN5Be5QbSRCGR-119" value="&lt;b&gt;Name&lt;/b&gt;" style="shape=partialRectangle;html=1;whiteSpace=wrap;connectable=0;strokeColor=#DFDFDF;overflow=hidden;fillColor=#F7F7F7;top=1;left=1;bottom=1;right=1;pointerEvents=1;fontSize=12;align=left;verticalAlign=middle;spacingLeft=10;spacingRight=10;fontFamily=Helvetica;fontColor=#333333;gradientColor=none;" vertex="1" parent="uidTZ6FEN5Be5QbSRCGR-118">
          <mxGeometry width="90" height="40" as="geometry">
            <mxRectangle width="90" height="40" as="alternateBounds" />
          </mxGeometry>
        </mxCell>
        <mxCell id="uidTZ6FEN5Be5QbSRCGR-120" value="&lt;b&gt;ev&lt;/b&gt;" style="shape=partialRectangle;html=1;whiteSpace=wrap;connectable=0;strokeColor=#DFDFDF;overflow=hidden;fillColor=#F7F7F7;top=1;left=1;bottom=1;right=1;pointerEvents=1;fontSize=12;align=left;verticalAlign=middle;spacingLeft=10;spacingRight=10;fontFamily=Helvetica;fontColor=#333333;gradientColor=none;" vertex="1" parent="uidTZ6FEN5Be5QbSRCGR-118">
          <mxGeometry x="90" width="590" height="40" as="geometry">
            <mxRectangle width="590" height="40" as="alternateBounds" />
          </mxGeometry>
        </mxCell>
        <mxCell id="uidTZ6FEN5Be5QbSRCGR-121" value="" style="shape=tableRow;horizontal=0;startSize=0;swimlaneHead=0;swimlaneBody=0;strokeColor=inherit;top=0;left=0;bottom=0;right=0;collapsible=0;dropTarget=0;fillColor=none;points=[[0,0.5],[1,0.5]];portConstraint=eastwest;fontSize=16;" vertex="1" parent="uidTZ6FEN5Be5QbSRCGR-117">
          <mxGeometry y="40" width="680" height="40" as="geometry" />
        </mxCell>
        <mxCell id="uidTZ6FEN5Be5QbSRCGR-122" value="Description" style="shape=partialRectangle;html=1;whiteSpace=wrap;connectable=0;strokeColor=#DFDFDF;overflow=hidden;fillColor=#F7F7F7;top=1;left=1;bottom=1;right=1;pointerEvents=1;fontSize=12;align=left;verticalAlign=middle;spacingLeft=10;spacingRight=10;fontFamily=Helvetica;fontColor=#333333;gradientColor=none;" vertex="1" parent="uidTZ6FEN5Be5QbSRCGR-121">
          <mxGeometry width="90" height="40" as="geometry">
            <mxRectangle width="90" height="40" as="alternateBounds" />
          </mxGeometry>
        </mxCell>
        <mxCell id="uidTZ6FEN5Be5QbSRCGR-123" value="" style="shape=partialRectangle;html=1;whiteSpace=wrap;connectable=0;strokeColor=#DFDFDF;overflow=hidden;fillColor=#FFFFFF;top=1;left=1;bottom=1;right=1;pointerEvents=1;fontSize=12;align=left;verticalAlign=middle;spacingLeft=10;spacingRight=10;fontFamily=Helvetica;fontColor=#333333;gradientColor=none;" vertex="1" parent="uidTZ6FEN5Be5QbSRCGR-121">
          <mxGeometry x="90" width="590" height="40" as="geometry">
            <mxRectangle width="590" height="40" as="alternateBounds" />
          </mxGeometry>
        </mxCell>
        <mxCell id="uidTZ6FEN5Be5QbSRCGR-124" value="" style="shape=tableRow;horizontal=0;startSize=0;swimlaneHead=0;swimlaneBody=0;strokeColor=inherit;top=0;left=0;bottom=0;right=0;collapsible=0;dropTarget=0;fillColor=none;points=[[0,0.5],[1,0.5]];portConstraint=eastwest;fontSize=16;" vertex="1" parent="uidTZ6FEN5Be5QbSRCGR-117">
          <mxGeometry y="80" width="680" height="40" as="geometry" />
        </mxCell>
        <mxCell id="uidTZ6FEN5Be5QbSRCGR-125" value="Reads" style="shape=partialRectangle;html=1;whiteSpace=wrap;connectable=0;strokeColor=#DFDFDF;overflow=hidden;fillColor=#F7F7F7;top=1;left=1;bottom=1;right=1;pointerEvents=1;fontSize=12;align=left;verticalAlign=middle;spacingLeft=10;spacingRight=10;fontFamily=Helvetica;fontColor=#333333;gradientColor=none;" vertex="1" parent="uidTZ6FEN5Be5QbSRCGR-124">
          <mxGeometry width="90" height="40" as="geometry">
            <mxRectangle width="90" height="40" as="alternateBounds" />
          </mxGeometry>
        </mxCell>
        <mxCell id="uidTZ6FEN5Be5QbSRCGR-126" value="" style="shape=partialRectangle;html=1;whiteSpace=wrap;connectable=0;strokeColor=#DFDFDF;overflow=hidden;fillColor=#FFFFFF;top=1;left=1;bottom=1;right=1;pointerEvents=1;fontSize=12;align=left;verticalAlign=middle;spacingLeft=10;spacingRight=10;fontFamily=Helvetica;fontColor=#333333;gradientColor=none;" vertex="1" parent="uidTZ6FEN5Be5QbSRCGR-124">
          <mxGeometry x="90" width="590" height="40" as="geometry">
            <mxRectangle width="590" height="40" as="alternateBounds" />
          </mxGeometry>
        </mxCell>
        <mxCell id="uidTZ6FEN5Be5QbSRCGR-127" style="shape=tableRow;horizontal=0;startSize=0;swimlaneHead=0;swimlaneBody=0;strokeColor=inherit;top=0;left=0;bottom=0;right=0;collapsible=0;dropTarget=0;fillColor=none;points=[[0,0.5],[1,0.5]];portConstraint=eastwest;fontSize=16;" vertex="1" parent="uidTZ6FEN5Be5QbSRCGR-117">
          <mxGeometry y="120" width="680" height="40" as="geometry" />
        </mxCell>
        <mxCell id="uidTZ6FEN5Be5QbSRCGR-128" value="Changes" style="shape=partialRectangle;html=1;whiteSpace=wrap;connectable=0;strokeColor=#DFDFDF;overflow=hidden;fillColor=#F7F7F7;top=1;left=1;bottom=1;right=1;pointerEvents=1;fontSize=12;align=left;verticalAlign=middle;spacingLeft=10;spacingRight=10;fontFamily=Helvetica;fontColor=#333333;gradientColor=none;" vertex="1" parent="uidTZ6FEN5Be5QbSRCGR-127">
          <mxGeometry width="90" height="40" as="geometry">
            <mxRectangle width="90" height="40" as="alternateBounds" />
          </mxGeometry>
        </mxCell>
        <mxCell id="uidTZ6FEN5Be5QbSRCGR-129" value="" style="shape=partialRectangle;html=1;whiteSpace=wrap;connectable=0;strokeColor=#DFDFDF;overflow=hidden;fillColor=#FFFFFF;top=1;left=1;bottom=1;right=1;pointerEvents=1;fontSize=12;align=left;verticalAlign=middle;spacingLeft=10;spacingRight=10;fontFamily=Helvetica;fontColor=#333333;gradientColor=none;" vertex="1" parent="uidTZ6FEN5Be5QbSRCGR-127">
          <mxGeometry x="90" width="590" height="40" as="geometry">
            <mxRectangle width="590" height="40" as="alternateBounds" />
          </mxGeometry>
        </mxCell>
        <mxCell id="uidTZ6FEN5Be5QbSRCGR-130" style="shape=tableRow;horizontal=0;startSize=0;swimlaneHead=0;swimlaneBody=0;strokeColor=inherit;top=0;left=0;bottom=0;right=0;collapsible=0;dropTarget=0;fillColor=none;points=[[0,0.5],[1,0.5]];portConstraint=eastwest;fontSize=16;" vertex="1" parent="uidTZ6FEN5Be5QbSRCGR-117">
          <mxGeometry y="160" width="680" height="40" as="geometry" />
        </mxCell>
        <mxCell id="uidTZ6FEN5Be5QbSRCGR-131" value="Assumes" style="shape=partialRectangle;html=1;whiteSpace=wrap;connectable=0;strokeColor=#DFDFDF;overflow=hidden;fillColor=#F7F7F7;top=1;left=1;bottom=1;right=1;pointerEvents=1;fontSize=12;align=left;verticalAlign=middle;spacingLeft=10;spacingRight=10;fontFamily=Helvetica;fontColor=#333333;gradientColor=none;" vertex="1" parent="uidTZ6FEN5Be5QbSRCGR-130">
          <mxGeometry width="90" height="40" as="geometry">
            <mxRectangle width="90" height="40" as="alternateBounds" />
          </mxGeometry>
        </mxCell>
        <mxCell id="uidTZ6FEN5Be5QbSRCGR-132" value="" style="shape=partialRectangle;html=1;whiteSpace=wrap;connectable=0;strokeColor=#DFDFDF;overflow=hidden;fillColor=#FFFFFF;top=1;left=1;bottom=1;right=1;pointerEvents=1;fontSize=12;align=left;verticalAlign=middle;spacingLeft=10;spacingRight=10;fontFamily=Helvetica;fontColor=#333333;gradientColor=none;" vertex="1" parent="uidTZ6FEN5Be5QbSRCGR-130">
          <mxGeometry x="90" width="590" height="40" as="geometry">
            <mxRectangle width="590" height="40" as="alternateBounds" />
          </mxGeometry>
        </mxCell>
        <mxCell id="uidTZ6FEN5Be5QbSRCGR-133" style="shape=tableRow;horizontal=0;startSize=0;swimlaneHead=0;swimlaneBody=0;strokeColor=inherit;top=0;left=0;bottom=0;right=0;collapsible=0;dropTarget=0;fillColor=none;points=[[0,0.5],[1,0.5]];portConstraint=eastwest;fontSize=16;" vertex="1" parent="uidTZ6FEN5Be5QbSRCGR-117">
          <mxGeometry y="200" width="680" height="40" as="geometry" />
        </mxCell>
        <mxCell id="uidTZ6FEN5Be5QbSRCGR-134" value="Result" style="shape=partialRectangle;html=1;whiteSpace=wrap;connectable=0;strokeColor=#DFDFDF;overflow=hidden;fillColor=#F7F7F7;top=1;left=1;bottom=1;right=1;pointerEvents=1;fontSize=12;align=left;verticalAlign=middle;spacingLeft=10;spacingRight=10;fontFamily=Helvetica;fontColor=#333333;gradientColor=none;" vertex="1" parent="uidTZ6FEN5Be5QbSRCGR-133">
          <mxGeometry width="90" height="40" as="geometry">
            <mxRectangle width="90" height="40" as="alternateBounds" />
          </mxGeometry>
        </mxCell>
        <mxCell id="uidTZ6FEN5Be5QbSRCGR-135" value="" style="shape=partialRectangle;html=1;whiteSpace=wrap;connectable=0;strokeColor=#DFDFDF;overflow=hidden;fillColor=#FFFFFF;top=1;left=1;bottom=1;right=1;pointerEvents=1;fontSize=12;align=left;verticalAlign=middle;spacingLeft=10;spacingRight=10;fontFamily=Helvetica;fontColor=#333333;gradientColor=none;" vertex="1" parent="uidTZ6FEN5Be5QbSRCGR-133">
          <mxGeometry x="90" width="590" height="40" as="geometry">
            <mxRectangle width="590" height="40" as="alternateBounds" />
          </mxGeometry>
        </mxCell>
        <mxCell id="uidTZ6FEN5Be5QbSRCGR-136" value="" style="shape=table;startSize=0;container=1;collapsible=0;childLayout=tableLayout;fontSize=16;rounded=0;strokeColor=default;swimlaneFillColor=none;gradientColor=none;" vertex="1" parent="1">
          <mxGeometry x="1760" y="720" width="680" height="240" as="geometry" />
        </mxCell>
        <mxCell id="uidTZ6FEN5Be5QbSRCGR-137" value="" style="shape=tableRow;horizontal=0;startSize=0;swimlaneHead=0;swimlaneBody=0;strokeColor=inherit;top=0;left=0;bottom=0;right=0;collapsible=0;dropTarget=0;fillColor=none;points=[[0,0.5],[1,0.5]];portConstraint=eastwest;fontSize=16;" vertex="1" parent="uidTZ6FEN5Be5QbSRCGR-136">
          <mxGeometry width="680" height="40" as="geometry" />
        </mxCell>
        <mxCell id="uidTZ6FEN5Be5QbSRCGR-138" value="&lt;b&gt;Name&lt;/b&gt;" style="shape=partialRectangle;html=1;whiteSpace=wrap;connectable=0;strokeColor=#DFDFDF;overflow=hidden;fillColor=#F7F7F7;top=1;left=1;bottom=1;right=1;pointerEvents=1;fontSize=12;align=left;verticalAlign=middle;spacingLeft=10;spacingRight=10;fontFamily=Helvetica;fontColor=#333333;gradientColor=none;" vertex="1" parent="uidTZ6FEN5Be5QbSRCGR-137">
          <mxGeometry width="90" height="40" as="geometry">
            <mxRectangle width="90" height="40" as="alternateBounds" />
          </mxGeometry>
        </mxCell>
        <mxCell id="uidTZ6FEN5Be5QbSRCGR-139" value="&lt;b&gt;switchOff&lt;/b&gt;" style="shape=partialRectangle;html=1;whiteSpace=wrap;connectable=0;strokeColor=#DFDFDF;overflow=hidden;fillColor=#F7F7F7;top=1;left=1;bottom=1;right=1;pointerEvents=1;fontSize=12;align=left;verticalAlign=middle;spacingLeft=10;spacingRight=10;fontFamily=Helvetica;fontColor=#333333;gradientColor=none;" vertex="1" parent="uidTZ6FEN5Be5QbSRCGR-137">
          <mxGeometry x="90" width="590" height="40" as="geometry">
            <mxRectangle width="590" height="40" as="alternateBounds" />
          </mxGeometry>
        </mxCell>
        <mxCell id="uidTZ6FEN5Be5QbSRCGR-140" value="" style="shape=tableRow;horizontal=0;startSize=0;swimlaneHead=0;swimlaneBody=0;strokeColor=inherit;top=0;left=0;bottom=0;right=0;collapsible=0;dropTarget=0;fillColor=none;points=[[0,0.5],[1,0.5]];portConstraint=eastwest;fontSize=16;" vertex="1" parent="uidTZ6FEN5Be5QbSRCGR-136">
          <mxGeometry y="40" width="680" height="40" as="geometry" />
        </mxCell>
        <mxCell id="uidTZ6FEN5Be5QbSRCGR-141" value="Description" style="shape=partialRectangle;html=1;whiteSpace=wrap;connectable=0;strokeColor=#DFDFDF;overflow=hidden;fillColor=#F7F7F7;top=1;left=1;bottom=1;right=1;pointerEvents=1;fontSize=12;align=left;verticalAlign=middle;spacingLeft=10;spacingRight=10;fontFamily=Helvetica;fontColor=#333333;gradientColor=none;" vertex="1" parent="uidTZ6FEN5Be5QbSRCGR-140">
          <mxGeometry width="90" height="40" as="geometry">
            <mxRectangle width="90" height="40" as="alternateBounds" />
          </mxGeometry>
        </mxCell>
        <mxCell id="uidTZ6FEN5Be5QbSRCGR-142" value="As an exterior event, releasing the power pedal, if the Module is in the Idle state and the SoC is more than zero, it moves the Module to the Discharging state." style="shape=partialRectangle;html=1;whiteSpace=wrap;connectable=0;strokeColor=#DFDFDF;overflow=hidden;fillColor=#FFFFFF;top=1;left=1;bottom=1;right=1;pointerEvents=1;fontSize=12;align=left;verticalAlign=middle;spacingLeft=10;spacingRight=10;fontFamily=Helvetica;fontColor=#333333;gradientColor=none;" vertex="1" parent="uidTZ6FEN5Be5QbSRCGR-140">
          <mxGeometry x="90" width="590" height="40" as="geometry">
            <mxRectangle width="590" height="40" as="alternateBounds" />
          </mxGeometry>
        </mxCell>
        <mxCell id="uidTZ6FEN5Be5QbSRCGR-143" value="" style="shape=tableRow;horizontal=0;startSize=0;swimlaneHead=0;swimlaneBody=0;strokeColor=inherit;top=0;left=0;bottom=0;right=0;collapsible=0;dropTarget=0;fillColor=none;points=[[0,0.5],[1,0.5]];portConstraint=eastwest;fontSize=16;" vertex="1" parent="uidTZ6FEN5Be5QbSRCGR-136">
          <mxGeometry y="80" width="680" height="40" as="geometry" />
        </mxCell>
        <mxCell id="uidTZ6FEN5Be5QbSRCGR-144" value="Reads" style="shape=partialRectangle;html=1;whiteSpace=wrap;connectable=0;strokeColor=#DFDFDF;overflow=hidden;fillColor=#F7F7F7;top=1;left=1;bottom=1;right=1;pointerEvents=1;fontSize=12;align=left;verticalAlign=middle;spacingLeft=10;spacingRight=10;fontFamily=Helvetica;fontColor=#333333;gradientColor=none;" vertex="1" parent="uidTZ6FEN5Be5QbSRCGR-143">
          <mxGeometry width="90" height="40" as="geometry">
            <mxRectangle width="90" height="40" as="alternateBounds" />
          </mxGeometry>
        </mxCell>
        <mxCell id="uidTZ6FEN5Be5QbSRCGR-145" value="SoC&amp;nbsp;" style="shape=partialRectangle;html=1;whiteSpace=wrap;connectable=0;strokeColor=#DFDFDF;overflow=hidden;fillColor=#FFFFFF;top=1;left=1;bottom=1;right=1;pointerEvents=1;fontSize=12;align=left;verticalAlign=middle;spacingLeft=10;spacingRight=10;fontFamily=Helvetica;fontColor=#333333;gradientColor=none;" vertex="1" parent="uidTZ6FEN5Be5QbSRCGR-143">
          <mxGeometry x="90" width="590" height="40" as="geometry">
            <mxRectangle width="590" height="40" as="alternateBounds" />
          </mxGeometry>
        </mxCell>
        <mxCell id="uidTZ6FEN5Be5QbSRCGR-146" style="shape=tableRow;horizontal=0;startSize=0;swimlaneHead=0;swimlaneBody=0;strokeColor=inherit;top=0;left=0;bottom=0;right=0;collapsible=0;dropTarget=0;fillColor=none;points=[[0,0.5],[1,0.5]];portConstraint=eastwest;fontSize=16;" vertex="1" parent="uidTZ6FEN5Be5QbSRCGR-136">
          <mxGeometry y="120" width="680" height="40" as="geometry" />
        </mxCell>
        <mxCell id="uidTZ6FEN5Be5QbSRCGR-147" value="Changes" style="shape=partialRectangle;html=1;whiteSpace=wrap;connectable=0;strokeColor=#DFDFDF;overflow=hidden;fillColor=#F7F7F7;top=1;left=1;bottom=1;right=1;pointerEvents=1;fontSize=12;align=left;verticalAlign=middle;spacingLeft=10;spacingRight=10;fontFamily=Helvetica;fontColor=#333333;gradientColor=none;" vertex="1" parent="uidTZ6FEN5Be5QbSRCGR-146">
          <mxGeometry width="90" height="40" as="geometry">
            <mxRectangle width="90" height="40" as="alternateBounds" />
          </mxGeometry>
        </mxCell>
        <mxCell id="uidTZ6FEN5Be5QbSRCGR-148" value="Module" style="shape=partialRectangle;html=1;whiteSpace=wrap;connectable=0;strokeColor=#DFDFDF;overflow=hidden;fillColor=#FFFFFF;top=1;left=1;bottom=1;right=1;pointerEvents=1;fontSize=12;align=left;verticalAlign=middle;spacingLeft=10;spacingRight=10;fontFamily=Helvetica;fontColor=#333333;gradientColor=none;" vertex="1" parent="uidTZ6FEN5Be5QbSRCGR-146">
          <mxGeometry x="90" width="590" height="40" as="geometry">
            <mxRectangle width="590" height="40" as="alternateBounds" />
          </mxGeometry>
        </mxCell>
        <mxCell id="uidTZ6FEN5Be5QbSRCGR-149" style="shape=tableRow;horizontal=0;startSize=0;swimlaneHead=0;swimlaneBody=0;strokeColor=inherit;top=0;left=0;bottom=0;right=0;collapsible=0;dropTarget=0;fillColor=none;points=[[0,0.5],[1,0.5]];portConstraint=eastwest;fontSize=16;" vertex="1" parent="uidTZ6FEN5Be5QbSRCGR-136">
          <mxGeometry y="160" width="680" height="40" as="geometry" />
        </mxCell>
        <mxCell id="uidTZ6FEN5Be5QbSRCGR-150" value="Assumes" style="shape=partialRectangle;html=1;whiteSpace=wrap;connectable=0;strokeColor=#DFDFDF;overflow=hidden;fillColor=#F7F7F7;top=1;left=1;bottom=1;right=1;pointerEvents=1;fontSize=12;align=left;verticalAlign=middle;spacingLeft=10;spacingRight=10;fontFamily=Helvetica;fontColor=#333333;gradientColor=none;" vertex="1" parent="uidTZ6FEN5Be5QbSRCGR-149">
          <mxGeometry width="90" height="40" as="geometry">
            <mxRectangle width="90" height="40" as="alternateBounds" />
          </mxGeometry>
        </mxCell>
        <mxCell id="uidTZ6FEN5Be5QbSRCGR-151" value="The Module is in the Discharging state&amp;nbsp;" style="shape=partialRectangle;html=1;whiteSpace=wrap;connectable=0;strokeColor=#DFDFDF;overflow=hidden;fillColor=#FFFFFF;top=1;left=1;bottom=1;right=1;pointerEvents=1;fontSize=12;align=left;verticalAlign=middle;spacingLeft=10;spacingRight=10;fontFamily=Helvetica;fontColor=#333333;gradientColor=none;" vertex="1" parent="uidTZ6FEN5Be5QbSRCGR-149">
          <mxGeometry x="90" width="590" height="40" as="geometry">
            <mxRectangle width="590" height="40" as="alternateBounds" />
          </mxGeometry>
        </mxCell>
        <mxCell id="uidTZ6FEN5Be5QbSRCGR-152" style="shape=tableRow;horizontal=0;startSize=0;swimlaneHead=0;swimlaneBody=0;strokeColor=inherit;top=0;left=0;bottom=0;right=0;collapsible=0;dropTarget=0;fillColor=none;points=[[0,0.5],[1,0.5]];portConstraint=eastwest;fontSize=16;" vertex="1" parent="uidTZ6FEN5Be5QbSRCGR-136">
          <mxGeometry y="200" width="680" height="40" as="geometry" />
        </mxCell>
        <mxCell id="uidTZ6FEN5Be5QbSRCGR-153" value="Result" style="shape=partialRectangle;html=1;whiteSpace=wrap;connectable=0;strokeColor=#DFDFDF;overflow=hidden;fillColor=#F7F7F7;top=1;left=1;bottom=1;right=1;pointerEvents=1;fontSize=12;align=left;verticalAlign=middle;spacingLeft=10;spacingRight=10;fontFamily=Helvetica;fontColor=#333333;gradientColor=none;" vertex="1" parent="uidTZ6FEN5Be5QbSRCGR-152">
          <mxGeometry width="90" height="40" as="geometry">
            <mxRectangle width="90" height="40" as="alternateBounds" />
          </mxGeometry>
        </mxCell>
        <mxCell id="uidTZ6FEN5Be5QbSRCGR-154" value="the Module is in the Idle state" style="shape=partialRectangle;html=1;whiteSpace=wrap;connectable=0;strokeColor=#DFDFDF;overflow=hidden;fillColor=#FFFFFF;top=1;left=1;bottom=1;right=1;pointerEvents=1;fontSize=12;align=left;verticalAlign=middle;spacingLeft=10;spacingRight=10;fontFamily=Helvetica;fontColor=#333333;gradientColor=none;" vertex="1" parent="uidTZ6FEN5Be5QbSRCGR-152">
          <mxGeometry x="90" width="590" height="40" as="geometry">
            <mxRectangle width="590" height="40" as="alternateBounds" />
          </mxGeometry>
        </mxCell>
        <mxCell id="uidTZ6FEN5Be5QbSRCGR-155" value="" style="shape=table;startSize=0;container=1;collapsible=0;childLayout=tableLayout;fontSize=16;rounded=0;strokeColor=default;swimlaneFillColor=none;gradientColor=none;" vertex="1" parent="1">
          <mxGeometry x="2640" y="40" width="680" height="250" as="geometry" />
        </mxCell>
        <mxCell id="uidTZ6FEN5Be5QbSRCGR-156" value="" style="shape=tableRow;horizontal=0;startSize=0;swimlaneHead=0;swimlaneBody=0;strokeColor=inherit;top=0;left=0;bottom=0;right=0;collapsible=0;dropTarget=0;fillColor=none;points=[[0,0.5],[1,0.5]];portConstraint=eastwest;fontSize=16;" vertex="1" parent="uidTZ6FEN5Be5QbSRCGR-155">
          <mxGeometry width="680" height="40" as="geometry" />
        </mxCell>
        <mxCell id="uidTZ6FEN5Be5QbSRCGR-157" value="&lt;b&gt;Name&lt;/b&gt;" style="shape=partialRectangle;html=1;whiteSpace=wrap;connectable=0;strokeColor=#DFDFDF;overflow=hidden;fillColor=#F7F7F7;top=1;left=1;bottom=1;right=1;pointerEvents=1;fontSize=12;align=left;verticalAlign=middle;spacingLeft=10;spacingRight=10;fontFamily=Helvetica;fontColor=#333333;gradientColor=none;" vertex="1" parent="uidTZ6FEN5Be5QbSRCGR-156">
          <mxGeometry width="90" height="40" as="geometry">
            <mxRectangle width="90" height="40" as="alternateBounds" />
          </mxGeometry>
        </mxCell>
        <mxCell id="uidTZ6FEN5Be5QbSRCGR-158" value="&lt;b&gt;drawPower&lt;/b&gt;" style="shape=partialRectangle;html=1;whiteSpace=wrap;connectable=0;strokeColor=#DFDFDF;overflow=hidden;fillColor=#F7F7F7;top=1;left=1;bottom=1;right=1;pointerEvents=1;fontSize=12;align=left;verticalAlign=middle;spacingLeft=10;spacingRight=10;fontFamily=Helvetica;fontColor=#333333;gradientColor=none;" vertex="1" parent="uidTZ6FEN5Be5QbSRCGR-156">
          <mxGeometry x="90" width="590" height="40" as="geometry">
            <mxRectangle width="590" height="40" as="alternateBounds" />
          </mxGeometry>
        </mxCell>
        <mxCell id="uidTZ6FEN5Be5QbSRCGR-159" value="" style="shape=tableRow;horizontal=0;startSize=0;swimlaneHead=0;swimlaneBody=0;strokeColor=inherit;top=0;left=0;bottom=0;right=0;collapsible=0;dropTarget=0;fillColor=none;points=[[0,0.5],[1,0.5]];portConstraint=eastwest;fontSize=16;" vertex="1" parent="uidTZ6FEN5Be5QbSRCGR-155">
          <mxGeometry y="40" width="680" height="50" as="geometry" />
        </mxCell>
        <mxCell id="uidTZ6FEN5Be5QbSRCGR-160" value="Description" style="shape=partialRectangle;html=1;whiteSpace=wrap;connectable=0;strokeColor=#DFDFDF;overflow=hidden;fillColor=#F7F7F7;top=1;left=1;bottom=1;right=1;pointerEvents=1;fontSize=12;align=left;verticalAlign=middle;spacingLeft=10;spacingRight=10;fontFamily=Helvetica;fontColor=#333333;gradientColor=none;" vertex="1" parent="uidTZ6FEN5Be5QbSRCGR-159">
          <mxGeometry width="90" height="50" as="geometry">
            <mxRectangle width="90" height="50" as="alternateBounds" />
          </mxGeometry>
        </mxCell>
        <mxCell id="uidTZ6FEN5Be5QbSRCGR-161" value="As an exterior event, if the Module is in the Idle or Charging state and the SoC is more than zero, it moves the Module to the Discharging state" style="shape=partialRectangle;html=1;whiteSpace=wrap;connectable=0;strokeColor=#DFDFDF;overflow=hidden;fillColor=#FFFFFF;top=1;left=1;bottom=1;right=1;pointerEvents=1;fontSize=12;align=left;verticalAlign=middle;spacingLeft=10;spacingRight=10;fontFamily=Helvetica;fontColor=#333333;gradientColor=none;" vertex="1" parent="uidTZ6FEN5Be5QbSRCGR-159">
          <mxGeometry x="90" width="590" height="50" as="geometry">
            <mxRectangle width="590" height="50" as="alternateBounds" />
          </mxGeometry>
        </mxCell>
        <mxCell id="uidTZ6FEN5Be5QbSRCGR-162" value="" style="shape=tableRow;horizontal=0;startSize=0;swimlaneHead=0;swimlaneBody=0;strokeColor=inherit;top=0;left=0;bottom=0;right=0;collapsible=0;dropTarget=0;fillColor=none;points=[[0,0.5],[1,0.5]];portConstraint=eastwest;fontSize=16;" vertex="1" parent="uidTZ6FEN5Be5QbSRCGR-155">
          <mxGeometry y="90" width="680" height="40" as="geometry" />
        </mxCell>
        <mxCell id="uidTZ6FEN5Be5QbSRCGR-163" value="Reads" style="shape=partialRectangle;html=1;whiteSpace=wrap;connectable=0;strokeColor=#DFDFDF;overflow=hidden;fillColor=#F7F7F7;top=1;left=1;bottom=1;right=1;pointerEvents=1;fontSize=12;align=left;verticalAlign=middle;spacingLeft=10;spacingRight=10;fontFamily=Helvetica;fontColor=#333333;gradientColor=none;" vertex="1" parent="uidTZ6FEN5Be5QbSRCGR-162">
          <mxGeometry width="90" height="40" as="geometry">
            <mxRectangle width="90" height="40" as="alternateBounds" />
          </mxGeometry>
        </mxCell>
        <mxCell id="uidTZ6FEN5Be5QbSRCGR-164" value="SoC&amp;nbsp;" style="shape=partialRectangle;html=1;whiteSpace=wrap;connectable=0;strokeColor=#DFDFDF;overflow=hidden;fillColor=#FFFFFF;top=1;left=1;bottom=1;right=1;pointerEvents=1;fontSize=12;align=left;verticalAlign=middle;spacingLeft=10;spacingRight=10;fontFamily=Helvetica;fontColor=#333333;gradientColor=none;" vertex="1" parent="uidTZ6FEN5Be5QbSRCGR-162">
          <mxGeometry x="90" width="590" height="40" as="geometry">
            <mxRectangle width="590" height="40" as="alternateBounds" />
          </mxGeometry>
        </mxCell>
        <mxCell id="uidTZ6FEN5Be5QbSRCGR-165" style="shape=tableRow;horizontal=0;startSize=0;swimlaneHead=0;swimlaneBody=0;strokeColor=inherit;top=0;left=0;bottom=0;right=0;collapsible=0;dropTarget=0;fillColor=none;points=[[0,0.5],[1,0.5]];portConstraint=eastwest;fontSize=16;" vertex="1" parent="uidTZ6FEN5Be5QbSRCGR-155">
          <mxGeometry y="130" width="680" height="40" as="geometry" />
        </mxCell>
        <mxCell id="uidTZ6FEN5Be5QbSRCGR-166" value="Changes" style="shape=partialRectangle;html=1;whiteSpace=wrap;connectable=0;strokeColor=#DFDFDF;overflow=hidden;fillColor=#F7F7F7;top=1;left=1;bottom=1;right=1;pointerEvents=1;fontSize=12;align=left;verticalAlign=middle;spacingLeft=10;spacingRight=10;fontFamily=Helvetica;fontColor=#333333;gradientColor=none;" vertex="1" parent="uidTZ6FEN5Be5QbSRCGR-165">
          <mxGeometry width="90" height="40" as="geometry">
            <mxRectangle width="90" height="40" as="alternateBounds" />
          </mxGeometry>
        </mxCell>
        <mxCell id="uidTZ6FEN5Be5QbSRCGR-167" value="Module" style="shape=partialRectangle;html=1;whiteSpace=wrap;connectable=0;strokeColor=#DFDFDF;overflow=hidden;fillColor=#FFFFFF;top=1;left=1;bottom=1;right=1;pointerEvents=1;fontSize=12;align=left;verticalAlign=middle;spacingLeft=10;spacingRight=10;fontFamily=Helvetica;fontColor=#333333;gradientColor=none;" vertex="1" parent="uidTZ6FEN5Be5QbSRCGR-165">
          <mxGeometry x="90" width="590" height="40" as="geometry">
            <mxRectangle width="590" height="40" as="alternateBounds" />
          </mxGeometry>
        </mxCell>
        <mxCell id="uidTZ6FEN5Be5QbSRCGR-168" style="shape=tableRow;horizontal=0;startSize=0;swimlaneHead=0;swimlaneBody=0;strokeColor=inherit;top=0;left=0;bottom=0;right=0;collapsible=0;dropTarget=0;fillColor=none;points=[[0,0.5],[1,0.5]];portConstraint=eastwest;fontSize=16;" vertex="1" parent="uidTZ6FEN5Be5QbSRCGR-155">
          <mxGeometry y="170" width="680" height="40" as="geometry" />
        </mxCell>
        <mxCell id="uidTZ6FEN5Be5QbSRCGR-169" value="Assumes" style="shape=partialRectangle;html=1;whiteSpace=wrap;connectable=0;strokeColor=#DFDFDF;overflow=hidden;fillColor=#F7F7F7;top=1;left=1;bottom=1;right=1;pointerEvents=1;fontSize=12;align=left;verticalAlign=middle;spacingLeft=10;spacingRight=10;fontFamily=Helvetica;fontColor=#333333;gradientColor=none;" vertex="1" parent="uidTZ6FEN5Be5QbSRCGR-168">
          <mxGeometry width="90" height="40" as="geometry">
            <mxRectangle width="90" height="40" as="alternateBounds" />
          </mxGeometry>
        </mxCell>
        <mxCell id="uidTZ6FEN5Be5QbSRCGR-170" value="The Module is in the Idle or Charging state" style="shape=partialRectangle;html=1;whiteSpace=wrap;connectable=0;strokeColor=#DFDFDF;overflow=hidden;fillColor=#FFFFFF;top=1;left=1;bottom=1;right=1;pointerEvents=1;fontSize=12;align=left;verticalAlign=middle;spacingLeft=10;spacingRight=10;fontFamily=Helvetica;fontColor=#333333;gradientColor=none;" vertex="1" parent="uidTZ6FEN5Be5QbSRCGR-168">
          <mxGeometry x="90" width="590" height="40" as="geometry">
            <mxRectangle width="590" height="40" as="alternateBounds" />
          </mxGeometry>
        </mxCell>
        <mxCell id="uidTZ6FEN5Be5QbSRCGR-171" style="shape=tableRow;horizontal=0;startSize=0;swimlaneHead=0;swimlaneBody=0;strokeColor=inherit;top=0;left=0;bottom=0;right=0;collapsible=0;dropTarget=0;fillColor=none;points=[[0,0.5],[1,0.5]];portConstraint=eastwest;fontSize=16;" vertex="1" parent="uidTZ6FEN5Be5QbSRCGR-155">
          <mxGeometry y="210" width="680" height="40" as="geometry" />
        </mxCell>
        <mxCell id="uidTZ6FEN5Be5QbSRCGR-172" value="Result" style="shape=partialRectangle;html=1;whiteSpace=wrap;connectable=0;strokeColor=#DFDFDF;overflow=hidden;fillColor=#F7F7F7;top=1;left=1;bottom=1;right=1;pointerEvents=1;fontSize=12;align=left;verticalAlign=middle;spacingLeft=10;spacingRight=10;fontFamily=Helvetica;fontColor=#333333;gradientColor=none;" vertex="1" parent="uidTZ6FEN5Be5QbSRCGR-171">
          <mxGeometry width="90" height="40" as="geometry">
            <mxRectangle width="90" height="40" as="alternateBounds" />
          </mxGeometry>
        </mxCell>
        <mxCell id="uidTZ6FEN5Be5QbSRCGR-173" value="if Module&amp;nbsp;is in the Idle or charging&lt;div&gt;&lt;span style=&quot;white-space: pre;&quot;&gt;&#x9;&lt;/span&gt;Module is in the Discharging state&lt;/div&gt;&lt;div&gt;&lt;br&gt;&lt;/div&gt;" style="shape=partialRectangle;html=1;whiteSpace=wrap;connectable=0;strokeColor=#DFDFDF;overflow=hidden;fillColor=#FFFFFF;top=1;left=1;bottom=1;right=1;pointerEvents=1;fontSize=12;align=left;verticalAlign=middle;spacingLeft=10;spacingRight=10;fontFamily=Helvetica;fontColor=#333333;gradientColor=none;" vertex="1" parent="uidTZ6FEN5Be5QbSRCGR-171">
          <mxGeometry x="90" width="590" height="40" as="geometry">
            <mxRectangle width="590" height="40" as="alternateBounds" />
          </mxGeometry>
        </mxCell>
        <mxCell id="uidTZ6FEN5Be5QbSRCGR-174" value="" style="shape=table;startSize=0;container=1;collapsible=0;childLayout=tableLayout;fontSize=16;rounded=0;strokeColor=default;swimlaneFillColor=none;gradientColor=none;" vertex="1" parent="1">
          <mxGeometry x="2640" y="340" width="680" height="250" as="geometry" />
        </mxCell>
        <mxCell id="uidTZ6FEN5Be5QbSRCGR-175" value="" style="shape=tableRow;horizontal=0;startSize=0;swimlaneHead=0;swimlaneBody=0;strokeColor=inherit;top=0;left=0;bottom=0;right=0;collapsible=0;dropTarget=0;fillColor=none;points=[[0,0.5],[1,0.5]];portConstraint=eastwest;fontSize=16;" vertex="1" parent="uidTZ6FEN5Be5QbSRCGR-174">
          <mxGeometry width="680" height="40" as="geometry" />
        </mxCell>
        <mxCell id="uidTZ6FEN5Be5QbSRCGR-176" value="&lt;b&gt;Name&lt;/b&gt;" style="shape=partialRectangle;html=1;whiteSpace=wrap;connectable=0;strokeColor=#DFDFDF;overflow=hidden;fillColor=#F7F7F7;top=1;left=1;bottom=1;right=1;pointerEvents=1;fontSize=12;align=left;verticalAlign=middle;spacingLeft=10;spacingRight=10;fontFamily=Helvetica;fontColor=#333333;gradientColor=none;" vertex="1" parent="uidTZ6FEN5Be5QbSRCGR-175">
          <mxGeometry width="90" height="40" as="geometry">
            <mxRectangle width="90" height="40" as="alternateBounds" />
          </mxGeometry>
        </mxCell>
        <mxCell id="uidTZ6FEN5Be5QbSRCGR-177" value="&lt;b&gt;addPower&lt;/b&gt;" style="shape=partialRectangle;html=1;whiteSpace=wrap;connectable=0;strokeColor=#DFDFDF;overflow=hidden;fillColor=#F7F7F7;top=1;left=1;bottom=1;right=1;pointerEvents=1;fontSize=12;align=left;verticalAlign=middle;spacingLeft=10;spacingRight=10;fontFamily=Helvetica;fontColor=#333333;gradientColor=none;" vertex="1" parent="uidTZ6FEN5Be5QbSRCGR-175">
          <mxGeometry x="90" width="590" height="40" as="geometry">
            <mxRectangle width="590" height="40" as="alternateBounds" />
          </mxGeometry>
        </mxCell>
        <mxCell id="uidTZ6FEN5Be5QbSRCGR-178" value="" style="shape=tableRow;horizontal=0;startSize=0;swimlaneHead=0;swimlaneBody=0;strokeColor=inherit;top=0;left=0;bottom=0;right=0;collapsible=0;dropTarget=0;fillColor=none;points=[[0,0.5],[1,0.5]];portConstraint=eastwest;fontSize=16;" vertex="1" parent="uidTZ6FEN5Be5QbSRCGR-174">
          <mxGeometry y="40" width="680" height="50" as="geometry" />
        </mxCell>
        <mxCell id="uidTZ6FEN5Be5QbSRCGR-179" value="Description" style="shape=partialRectangle;html=1;whiteSpace=wrap;connectable=0;strokeColor=#DFDFDF;overflow=hidden;fillColor=#F7F7F7;top=1;left=1;bottom=1;right=1;pointerEvents=1;fontSize=12;align=left;verticalAlign=middle;spacingLeft=10;spacingRight=10;fontFamily=Helvetica;fontColor=#333333;gradientColor=none;" vertex="1" parent="uidTZ6FEN5Be5QbSRCGR-178">
          <mxGeometry width="90" height="50" as="geometry">
            <mxRectangle width="90" height="50" as="alternateBounds" />
          </mxGeometry>
        </mxCell>
        <mxCell id="uidTZ6FEN5Be5QbSRCGR-180" value="As an exterior event, if the Module is in the Idle or Discharging state and the SoC is less than capacity, it moves the Module to the Charging state" style="shape=partialRectangle;html=1;whiteSpace=wrap;connectable=0;strokeColor=#DFDFDF;overflow=hidden;fillColor=#FFFFFF;top=1;left=1;bottom=1;right=1;pointerEvents=1;fontSize=12;align=left;verticalAlign=middle;spacingLeft=10;spacingRight=10;fontFamily=Helvetica;fontColor=#333333;gradientColor=none;" vertex="1" parent="uidTZ6FEN5Be5QbSRCGR-178">
          <mxGeometry x="90" width="590" height="50" as="geometry">
            <mxRectangle width="590" height="50" as="alternateBounds" />
          </mxGeometry>
        </mxCell>
        <mxCell id="uidTZ6FEN5Be5QbSRCGR-181" value="" style="shape=tableRow;horizontal=0;startSize=0;swimlaneHead=0;swimlaneBody=0;strokeColor=inherit;top=0;left=0;bottom=0;right=0;collapsible=0;dropTarget=0;fillColor=none;points=[[0,0.5],[1,0.5]];portConstraint=eastwest;fontSize=16;" vertex="1" parent="uidTZ6FEN5Be5QbSRCGR-174">
          <mxGeometry y="90" width="680" height="40" as="geometry" />
        </mxCell>
        <mxCell id="uidTZ6FEN5Be5QbSRCGR-182" value="Reads" style="shape=partialRectangle;html=1;whiteSpace=wrap;connectable=0;strokeColor=#DFDFDF;overflow=hidden;fillColor=#F7F7F7;top=1;left=1;bottom=1;right=1;pointerEvents=1;fontSize=12;align=left;verticalAlign=middle;spacingLeft=10;spacingRight=10;fontFamily=Helvetica;fontColor=#333333;gradientColor=none;" vertex="1" parent="uidTZ6FEN5Be5QbSRCGR-181">
          <mxGeometry width="90" height="40" as="geometry">
            <mxRectangle width="90" height="40" as="alternateBounds" />
          </mxGeometry>
        </mxCell>
        <mxCell id="uidTZ6FEN5Be5QbSRCGR-183" value="SoC&amp;nbsp;" style="shape=partialRectangle;html=1;whiteSpace=wrap;connectable=0;strokeColor=#DFDFDF;overflow=hidden;fillColor=#FFFFFF;top=1;left=1;bottom=1;right=1;pointerEvents=1;fontSize=12;align=left;verticalAlign=middle;spacingLeft=10;spacingRight=10;fontFamily=Helvetica;fontColor=#333333;gradientColor=none;" vertex="1" parent="uidTZ6FEN5Be5QbSRCGR-181">
          <mxGeometry x="90" width="590" height="40" as="geometry">
            <mxRectangle width="590" height="40" as="alternateBounds" />
          </mxGeometry>
        </mxCell>
        <mxCell id="uidTZ6FEN5Be5QbSRCGR-184" style="shape=tableRow;horizontal=0;startSize=0;swimlaneHead=0;swimlaneBody=0;strokeColor=inherit;top=0;left=0;bottom=0;right=0;collapsible=0;dropTarget=0;fillColor=none;points=[[0,0.5],[1,0.5]];portConstraint=eastwest;fontSize=16;" vertex="1" parent="uidTZ6FEN5Be5QbSRCGR-174">
          <mxGeometry y="130" width="680" height="40" as="geometry" />
        </mxCell>
        <mxCell id="uidTZ6FEN5Be5QbSRCGR-185" value="Changes" style="shape=partialRectangle;html=1;whiteSpace=wrap;connectable=0;strokeColor=#DFDFDF;overflow=hidden;fillColor=#F7F7F7;top=1;left=1;bottom=1;right=1;pointerEvents=1;fontSize=12;align=left;verticalAlign=middle;spacingLeft=10;spacingRight=10;fontFamily=Helvetica;fontColor=#333333;gradientColor=none;" vertex="1" parent="uidTZ6FEN5Be5QbSRCGR-184">
          <mxGeometry width="90" height="40" as="geometry">
            <mxRectangle width="90" height="40" as="alternateBounds" />
          </mxGeometry>
        </mxCell>
        <mxCell id="uidTZ6FEN5Be5QbSRCGR-186" value="Module" style="shape=partialRectangle;html=1;whiteSpace=wrap;connectable=0;strokeColor=#DFDFDF;overflow=hidden;fillColor=#FFFFFF;top=1;left=1;bottom=1;right=1;pointerEvents=1;fontSize=12;align=left;verticalAlign=middle;spacingLeft=10;spacingRight=10;fontFamily=Helvetica;fontColor=#333333;gradientColor=none;" vertex="1" parent="uidTZ6FEN5Be5QbSRCGR-184">
          <mxGeometry x="90" width="590" height="40" as="geometry">
            <mxRectangle width="590" height="40" as="alternateBounds" />
          </mxGeometry>
        </mxCell>
        <mxCell id="uidTZ6FEN5Be5QbSRCGR-187" style="shape=tableRow;horizontal=0;startSize=0;swimlaneHead=0;swimlaneBody=0;strokeColor=inherit;top=0;left=0;bottom=0;right=0;collapsible=0;dropTarget=0;fillColor=none;points=[[0,0.5],[1,0.5]];portConstraint=eastwest;fontSize=16;" vertex="1" parent="uidTZ6FEN5Be5QbSRCGR-174">
          <mxGeometry y="170" width="680" height="40" as="geometry" />
        </mxCell>
        <mxCell id="uidTZ6FEN5Be5QbSRCGR-188" value="Assumes" style="shape=partialRectangle;html=1;whiteSpace=wrap;connectable=0;strokeColor=#DFDFDF;overflow=hidden;fillColor=#F7F7F7;top=1;left=1;bottom=1;right=1;pointerEvents=1;fontSize=12;align=left;verticalAlign=middle;spacingLeft=10;spacingRight=10;fontFamily=Helvetica;fontColor=#333333;gradientColor=none;" vertex="1" parent="uidTZ6FEN5Be5QbSRCGR-187">
          <mxGeometry width="90" height="40" as="geometry">
            <mxRectangle width="90" height="40" as="alternateBounds" />
          </mxGeometry>
        </mxCell>
        <mxCell id="uidTZ6FEN5Be5QbSRCGR-189" value="The Module is in the Idle or Discharging state" style="shape=partialRectangle;html=1;whiteSpace=wrap;connectable=0;strokeColor=#DFDFDF;overflow=hidden;fillColor=#FFFFFF;top=1;left=1;bottom=1;right=1;pointerEvents=1;fontSize=12;align=left;verticalAlign=middle;spacingLeft=10;spacingRight=10;fontFamily=Helvetica;fontColor=#333333;gradientColor=none;" vertex="1" parent="uidTZ6FEN5Be5QbSRCGR-187">
          <mxGeometry x="90" width="590" height="40" as="geometry">
            <mxRectangle width="590" height="40" as="alternateBounds" />
          </mxGeometry>
        </mxCell>
        <mxCell id="uidTZ6FEN5Be5QbSRCGR-190" style="shape=tableRow;horizontal=0;startSize=0;swimlaneHead=0;swimlaneBody=0;strokeColor=inherit;top=0;left=0;bottom=0;right=0;collapsible=0;dropTarget=0;fillColor=none;points=[[0,0.5],[1,0.5]];portConstraint=eastwest;fontSize=16;" vertex="1" parent="uidTZ6FEN5Be5QbSRCGR-174">
          <mxGeometry y="210" width="680" height="40" as="geometry" />
        </mxCell>
        <mxCell id="uidTZ6FEN5Be5QbSRCGR-191" value="Result" style="shape=partialRectangle;html=1;whiteSpace=wrap;connectable=0;strokeColor=#DFDFDF;overflow=hidden;fillColor=#F7F7F7;top=1;left=1;bottom=1;right=1;pointerEvents=1;fontSize=12;align=left;verticalAlign=middle;spacingLeft=10;spacingRight=10;fontFamily=Helvetica;fontColor=#333333;gradientColor=none;" vertex="1" parent="uidTZ6FEN5Be5QbSRCGR-190">
          <mxGeometry width="90" height="40" as="geometry">
            <mxRectangle width="90" height="40" as="alternateBounds" />
          </mxGeometry>
        </mxCell>
        <mxCell id="uidTZ6FEN5Be5QbSRCGR-192" value="if Module&amp;nbsp;is in the Idle or Charging&lt;div&gt;&lt;span style=&quot;white-space: pre;&quot;&gt;&#x9;&lt;/span&gt;Module is in the Discharging state&lt;/div&gt;&lt;div&gt;&lt;br&gt;&lt;/div&gt;" style="shape=partialRectangle;html=1;whiteSpace=wrap;connectable=0;strokeColor=#DFDFDF;overflow=hidden;fillColor=#FFFFFF;top=1;left=1;bottom=1;right=1;pointerEvents=1;fontSize=12;align=left;verticalAlign=middle;spacingLeft=10;spacingRight=10;fontFamily=Helvetica;fontColor=#333333;gradientColor=none;" vertex="1" parent="uidTZ6FEN5Be5QbSRCGR-190">
          <mxGeometry x="90" width="590" height="40" as="geometry">
            <mxRectangle width="590" height="40" as="alternateBounds" />
          </mxGeometry>
        </mxCell>
        <mxCell id="uidTZ6FEN5Be5QbSRCGR-193" value="" style="shape=table;startSize=0;container=1;collapsible=0;childLayout=tableLayout;fontSize=16;rounded=0;strokeColor=default;swimlaneFillColor=none;gradientColor=none;" vertex="1" parent="1">
          <mxGeometry x="2640" y="640" width="680" height="200" as="geometry" />
        </mxCell>
        <mxCell id="uidTZ6FEN5Be5QbSRCGR-194" value="" style="shape=tableRow;horizontal=0;startSize=0;swimlaneHead=0;swimlaneBody=0;strokeColor=inherit;top=0;left=0;bottom=0;right=0;collapsible=0;dropTarget=0;fillColor=none;points=[[0,0.5],[1,0.5]];portConstraint=eastwest;fontSize=16;" vertex="1" parent="uidTZ6FEN5Be5QbSRCGR-193">
          <mxGeometry width="680" height="40" as="geometry" />
        </mxCell>
        <mxCell id="uidTZ6FEN5Be5QbSRCGR-195" value="&lt;b&gt;Name&lt;/b&gt;" style="shape=partialRectangle;html=1;whiteSpace=wrap;connectable=0;strokeColor=#DFDFDF;overflow=hidden;fillColor=#F7F7F7;top=1;left=1;bottom=1;right=1;pointerEvents=1;fontSize=12;align=left;verticalAlign=middle;spacingLeft=10;spacingRight=10;fontFamily=Helvetica;fontColor=#333333;gradientColor=none;" vertex="1" parent="uidTZ6FEN5Be5QbSRCGR-194">
          <mxGeometry width="90" height="40" as="geometry">
            <mxRectangle width="90" height="40" as="alternateBounds" />
          </mxGeometry>
        </mxCell>
        <mxCell id="uidTZ6FEN5Be5QbSRCGR-196" value="&lt;b&gt;stopDrawingPower&lt;/b&gt;" style="shape=partialRectangle;html=1;whiteSpace=wrap;connectable=0;strokeColor=#DFDFDF;overflow=hidden;fillColor=#F7F7F7;top=1;left=1;bottom=1;right=1;pointerEvents=1;fontSize=12;align=left;verticalAlign=middle;spacingLeft=10;spacingRight=10;fontFamily=Helvetica;fontColor=#333333;gradientColor=none;" vertex="1" parent="uidTZ6FEN5Be5QbSRCGR-194">
          <mxGeometry x="90" width="590" height="40" as="geometry">
            <mxRectangle width="590" height="40" as="alternateBounds" />
          </mxGeometry>
        </mxCell>
        <mxCell id="uidTZ6FEN5Be5QbSRCGR-197" value="" style="shape=tableRow;horizontal=0;startSize=0;swimlaneHead=0;swimlaneBody=0;strokeColor=inherit;top=0;left=0;bottom=0;right=0;collapsible=0;dropTarget=0;fillColor=none;points=[[0,0.5],[1,0.5]];portConstraint=eastwest;fontSize=16;" vertex="1" parent="uidTZ6FEN5Be5QbSRCGR-193">
          <mxGeometry y="40" width="680" height="40" as="geometry" />
        </mxCell>
        <mxCell id="uidTZ6FEN5Be5QbSRCGR-198" value="Description" style="shape=partialRectangle;html=1;whiteSpace=wrap;connectable=0;strokeColor=#DFDFDF;overflow=hidden;fillColor=#F7F7F7;top=1;left=1;bottom=1;right=1;pointerEvents=1;fontSize=12;align=left;verticalAlign=middle;spacingLeft=10;spacingRight=10;fontFamily=Helvetica;fontColor=#333333;gradientColor=none;" vertex="1" parent="uidTZ6FEN5Be5QbSRCGR-197">
          <mxGeometry width="90" height="40" as="geometry">
            <mxRectangle width="90" height="40" as="alternateBounds" />
          </mxGeometry>
        </mxCell>
        <mxCell id="uidTZ6FEN5Be5QbSRCGR-199" value="As an exterior event, if the Module is in the Discharging state, it moves the Module to the Idle state" style="shape=partialRectangle;html=1;whiteSpace=wrap;connectable=0;strokeColor=#DFDFDF;overflow=hidden;fillColor=#FFFFFF;top=1;left=1;bottom=1;right=1;pointerEvents=1;fontSize=12;align=left;verticalAlign=middle;spacingLeft=10;spacingRight=10;fontFamily=Helvetica;fontColor=#333333;gradientColor=none;" vertex="1" parent="uidTZ6FEN5Be5QbSRCGR-197">
          <mxGeometry x="90" width="590" height="40" as="geometry">
            <mxRectangle width="590" height="40" as="alternateBounds" />
          </mxGeometry>
        </mxCell>
        <mxCell id="uidTZ6FEN5Be5QbSRCGR-200" style="shape=tableRow;horizontal=0;startSize=0;swimlaneHead=0;swimlaneBody=0;strokeColor=inherit;top=0;left=0;bottom=0;right=0;collapsible=0;dropTarget=0;fillColor=none;points=[[0,0.5],[1,0.5]];portConstraint=eastwest;fontSize=16;" vertex="1" parent="uidTZ6FEN5Be5QbSRCGR-193">
          <mxGeometry y="80" width="680" height="40" as="geometry" />
        </mxCell>
        <mxCell id="uidTZ6FEN5Be5QbSRCGR-201" value="Changes" style="shape=partialRectangle;html=1;whiteSpace=wrap;connectable=0;strokeColor=#DFDFDF;overflow=hidden;fillColor=#F7F7F7;top=1;left=1;bottom=1;right=1;pointerEvents=1;fontSize=12;align=left;verticalAlign=middle;spacingLeft=10;spacingRight=10;fontFamily=Helvetica;fontColor=#333333;gradientColor=none;" vertex="1" parent="uidTZ6FEN5Be5QbSRCGR-200">
          <mxGeometry width="90" height="40" as="geometry">
            <mxRectangle width="90" height="40" as="alternateBounds" />
          </mxGeometry>
        </mxCell>
        <mxCell id="uidTZ6FEN5Be5QbSRCGR-202" value="Module" style="shape=partialRectangle;html=1;whiteSpace=wrap;connectable=0;strokeColor=#DFDFDF;overflow=hidden;fillColor=#FFFFFF;top=1;left=1;bottom=1;right=1;pointerEvents=1;fontSize=12;align=left;verticalAlign=middle;spacingLeft=10;spacingRight=10;fontFamily=Helvetica;fontColor=#333333;gradientColor=none;" vertex="1" parent="uidTZ6FEN5Be5QbSRCGR-200">
          <mxGeometry x="90" width="590" height="40" as="geometry">
            <mxRectangle width="590" height="40" as="alternateBounds" />
          </mxGeometry>
        </mxCell>
        <mxCell id="uidTZ6FEN5Be5QbSRCGR-203" style="shape=tableRow;horizontal=0;startSize=0;swimlaneHead=0;swimlaneBody=0;strokeColor=inherit;top=0;left=0;bottom=0;right=0;collapsible=0;dropTarget=0;fillColor=none;points=[[0,0.5],[1,0.5]];portConstraint=eastwest;fontSize=16;" vertex="1" parent="uidTZ6FEN5Be5QbSRCGR-193">
          <mxGeometry y="120" width="680" height="40" as="geometry" />
        </mxCell>
        <mxCell id="uidTZ6FEN5Be5QbSRCGR-204" value="Assumes" style="shape=partialRectangle;html=1;whiteSpace=wrap;connectable=0;strokeColor=#DFDFDF;overflow=hidden;fillColor=#F7F7F7;top=1;left=1;bottom=1;right=1;pointerEvents=1;fontSize=12;align=left;verticalAlign=middle;spacingLeft=10;spacingRight=10;fontFamily=Helvetica;fontColor=#333333;gradientColor=none;" vertex="1" parent="uidTZ6FEN5Be5QbSRCGR-203">
          <mxGeometry width="90" height="40" as="geometry">
            <mxRectangle width="90" height="40" as="alternateBounds" />
          </mxGeometry>
        </mxCell>
        <mxCell id="uidTZ6FEN5Be5QbSRCGR-205" value="The Module is in the Discharging state" style="shape=partialRectangle;html=1;whiteSpace=wrap;connectable=0;strokeColor=#DFDFDF;overflow=hidden;fillColor=#FFFFFF;top=1;left=1;bottom=1;right=1;pointerEvents=1;fontSize=12;align=left;verticalAlign=middle;spacingLeft=10;spacingRight=10;fontFamily=Helvetica;fontColor=#333333;gradientColor=none;" vertex="1" parent="uidTZ6FEN5Be5QbSRCGR-203">
          <mxGeometry x="90" width="590" height="40" as="geometry">
            <mxRectangle width="590" height="40" as="alternateBounds" />
          </mxGeometry>
        </mxCell>
        <mxCell id="uidTZ6FEN5Be5QbSRCGR-206" style="shape=tableRow;horizontal=0;startSize=0;swimlaneHead=0;swimlaneBody=0;strokeColor=inherit;top=0;left=0;bottom=0;right=0;collapsible=0;dropTarget=0;fillColor=none;points=[[0,0.5],[1,0.5]];portConstraint=eastwest;fontSize=16;" vertex="1" parent="uidTZ6FEN5Be5QbSRCGR-193">
          <mxGeometry y="160" width="680" height="40" as="geometry" />
        </mxCell>
        <mxCell id="uidTZ6FEN5Be5QbSRCGR-207" value="Result" style="shape=partialRectangle;html=1;whiteSpace=wrap;connectable=0;strokeColor=#DFDFDF;overflow=hidden;fillColor=#F7F7F7;top=1;left=1;bottom=1;right=1;pointerEvents=1;fontSize=12;align=left;verticalAlign=middle;spacingLeft=10;spacingRight=10;fontFamily=Helvetica;fontColor=#333333;gradientColor=none;" vertex="1" parent="uidTZ6FEN5Be5QbSRCGR-206">
          <mxGeometry width="90" height="40" as="geometry">
            <mxRectangle width="90" height="40" as="alternateBounds" />
          </mxGeometry>
        </mxCell>
        <mxCell id="uidTZ6FEN5Be5QbSRCGR-208" value="&lt;div&gt;the Module is in the Idle state&lt;/div&gt;" style="shape=partialRectangle;html=1;whiteSpace=wrap;connectable=0;strokeColor=#DFDFDF;overflow=hidden;fillColor=#FFFFFF;top=1;left=1;bottom=1;right=1;pointerEvents=1;fontSize=12;align=left;verticalAlign=middle;spacingLeft=10;spacingRight=10;fontFamily=Helvetica;fontColor=#333333;gradientColor=none;" vertex="1" parent="uidTZ6FEN5Be5QbSRCGR-206">
          <mxGeometry x="90" width="590" height="40" as="geometry">
            <mxRectangle width="590" height="40" as="alternateBounds" />
          </mxGeometry>
        </mxCell>
        <mxCell id="uidTZ6FEN5Be5QbSRCGR-209" value="" style="shape=table;startSize=0;container=1;collapsible=0;childLayout=tableLayout;fontSize=16;rounded=0;strokeColor=default;swimlaneFillColor=none;gradientColor=none;" vertex="1" parent="1">
          <mxGeometry x="2640" y="890" width="680" height="200" as="geometry" />
        </mxCell>
        <mxCell id="uidTZ6FEN5Be5QbSRCGR-210" value="" style="shape=tableRow;horizontal=0;startSize=0;swimlaneHead=0;swimlaneBody=0;strokeColor=inherit;top=0;left=0;bottom=0;right=0;collapsible=0;dropTarget=0;fillColor=none;points=[[0,0.5],[1,0.5]];portConstraint=eastwest;fontSize=16;" vertex="1" parent="uidTZ6FEN5Be5QbSRCGR-209">
          <mxGeometry width="680" height="40" as="geometry" />
        </mxCell>
        <mxCell id="uidTZ6FEN5Be5QbSRCGR-211" value="&lt;b&gt;Name&lt;/b&gt;" style="shape=partialRectangle;html=1;whiteSpace=wrap;connectable=0;strokeColor=#DFDFDF;overflow=hidden;fillColor=#F7F7F7;top=1;left=1;bottom=1;right=1;pointerEvents=1;fontSize=12;align=left;verticalAlign=middle;spacingLeft=10;spacingRight=10;fontFamily=Helvetica;fontColor=#333333;gradientColor=none;" vertex="1" parent="uidTZ6FEN5Be5QbSRCGR-210">
          <mxGeometry width="90" height="40" as="geometry">
            <mxRectangle width="90" height="40" as="alternateBounds" />
          </mxGeometry>
        </mxCell>
        <mxCell id="uidTZ6FEN5Be5QbSRCGR-212" value="&lt;b&gt;stopAddingPower&lt;/b&gt;" style="shape=partialRectangle;html=1;whiteSpace=wrap;connectable=0;strokeColor=#DFDFDF;overflow=hidden;fillColor=#F7F7F7;top=1;left=1;bottom=1;right=1;pointerEvents=1;fontSize=12;align=left;verticalAlign=middle;spacingLeft=10;spacingRight=10;fontFamily=Helvetica;fontColor=#333333;gradientColor=none;" vertex="1" parent="uidTZ6FEN5Be5QbSRCGR-210">
          <mxGeometry x="90" width="590" height="40" as="geometry">
            <mxRectangle width="590" height="40" as="alternateBounds" />
          </mxGeometry>
        </mxCell>
        <mxCell id="uidTZ6FEN5Be5QbSRCGR-213" value="" style="shape=tableRow;horizontal=0;startSize=0;swimlaneHead=0;swimlaneBody=0;strokeColor=inherit;top=0;left=0;bottom=0;right=0;collapsible=0;dropTarget=0;fillColor=none;points=[[0,0.5],[1,0.5]];portConstraint=eastwest;fontSize=16;" vertex="1" parent="uidTZ6FEN5Be5QbSRCGR-209">
          <mxGeometry y="40" width="680" height="40" as="geometry" />
        </mxCell>
        <mxCell id="uidTZ6FEN5Be5QbSRCGR-214" value="Description" style="shape=partialRectangle;html=1;whiteSpace=wrap;connectable=0;strokeColor=#DFDFDF;overflow=hidden;fillColor=#F7F7F7;top=1;left=1;bottom=1;right=1;pointerEvents=1;fontSize=12;align=left;verticalAlign=middle;spacingLeft=10;spacingRight=10;fontFamily=Helvetica;fontColor=#333333;gradientColor=none;" vertex="1" parent="uidTZ6FEN5Be5QbSRCGR-213">
          <mxGeometry width="90" height="40" as="geometry">
            <mxRectangle width="90" height="40" as="alternateBounds" />
          </mxGeometry>
        </mxCell>
        <mxCell id="uidTZ6FEN5Be5QbSRCGR-215" value="As an exterior event, if the Module is in the Charging state, it moves the Module to the Idle state" style="shape=partialRectangle;html=1;whiteSpace=wrap;connectable=0;strokeColor=#DFDFDF;overflow=hidden;fillColor=#FFFFFF;top=1;left=1;bottom=1;right=1;pointerEvents=1;fontSize=12;align=left;verticalAlign=middle;spacingLeft=10;spacingRight=10;fontFamily=Helvetica;fontColor=#333333;gradientColor=none;" vertex="1" parent="uidTZ6FEN5Be5QbSRCGR-213">
          <mxGeometry x="90" width="590" height="40" as="geometry">
            <mxRectangle width="590" height="40" as="alternateBounds" />
          </mxGeometry>
        </mxCell>
        <mxCell id="uidTZ6FEN5Be5QbSRCGR-216" style="shape=tableRow;horizontal=0;startSize=0;swimlaneHead=0;swimlaneBody=0;strokeColor=inherit;top=0;left=0;bottom=0;right=0;collapsible=0;dropTarget=0;fillColor=none;points=[[0,0.5],[1,0.5]];portConstraint=eastwest;fontSize=16;" vertex="1" parent="uidTZ6FEN5Be5QbSRCGR-209">
          <mxGeometry y="80" width="680" height="40" as="geometry" />
        </mxCell>
        <mxCell id="uidTZ6FEN5Be5QbSRCGR-217" value="Changes" style="shape=partialRectangle;html=1;whiteSpace=wrap;connectable=0;strokeColor=#DFDFDF;overflow=hidden;fillColor=#F7F7F7;top=1;left=1;bottom=1;right=1;pointerEvents=1;fontSize=12;align=left;verticalAlign=middle;spacingLeft=10;spacingRight=10;fontFamily=Helvetica;fontColor=#333333;gradientColor=none;" vertex="1" parent="uidTZ6FEN5Be5QbSRCGR-216">
          <mxGeometry width="90" height="40" as="geometry">
            <mxRectangle width="90" height="40" as="alternateBounds" />
          </mxGeometry>
        </mxCell>
        <mxCell id="uidTZ6FEN5Be5QbSRCGR-218" value="Module" style="shape=partialRectangle;html=1;whiteSpace=wrap;connectable=0;strokeColor=#DFDFDF;overflow=hidden;fillColor=#FFFFFF;top=1;left=1;bottom=1;right=1;pointerEvents=1;fontSize=12;align=left;verticalAlign=middle;spacingLeft=10;spacingRight=10;fontFamily=Helvetica;fontColor=#333333;gradientColor=none;" vertex="1" parent="uidTZ6FEN5Be5QbSRCGR-216">
          <mxGeometry x="90" width="590" height="40" as="geometry">
            <mxRectangle width="590" height="40" as="alternateBounds" />
          </mxGeometry>
        </mxCell>
        <mxCell id="uidTZ6FEN5Be5QbSRCGR-219" style="shape=tableRow;horizontal=0;startSize=0;swimlaneHead=0;swimlaneBody=0;strokeColor=inherit;top=0;left=0;bottom=0;right=0;collapsible=0;dropTarget=0;fillColor=none;points=[[0,0.5],[1,0.5]];portConstraint=eastwest;fontSize=16;" vertex="1" parent="uidTZ6FEN5Be5QbSRCGR-209">
          <mxGeometry y="120" width="680" height="40" as="geometry" />
        </mxCell>
        <mxCell id="uidTZ6FEN5Be5QbSRCGR-220" value="Assumes" style="shape=partialRectangle;html=1;whiteSpace=wrap;connectable=0;strokeColor=#DFDFDF;overflow=hidden;fillColor=#F7F7F7;top=1;left=1;bottom=1;right=1;pointerEvents=1;fontSize=12;align=left;verticalAlign=middle;spacingLeft=10;spacingRight=10;fontFamily=Helvetica;fontColor=#333333;gradientColor=none;" vertex="1" parent="uidTZ6FEN5Be5QbSRCGR-219">
          <mxGeometry width="90" height="40" as="geometry">
            <mxRectangle width="90" height="40" as="alternateBounds" />
          </mxGeometry>
        </mxCell>
        <mxCell id="uidTZ6FEN5Be5QbSRCGR-221" value="The Module is in the Charging state" style="shape=partialRectangle;html=1;whiteSpace=wrap;connectable=0;strokeColor=#DFDFDF;overflow=hidden;fillColor=#FFFFFF;top=1;left=1;bottom=1;right=1;pointerEvents=1;fontSize=12;align=left;verticalAlign=middle;spacingLeft=10;spacingRight=10;fontFamily=Helvetica;fontColor=#333333;gradientColor=none;" vertex="1" parent="uidTZ6FEN5Be5QbSRCGR-219">
          <mxGeometry x="90" width="590" height="40" as="geometry">
            <mxRectangle width="590" height="40" as="alternateBounds" />
          </mxGeometry>
        </mxCell>
        <mxCell id="uidTZ6FEN5Be5QbSRCGR-222" style="shape=tableRow;horizontal=0;startSize=0;swimlaneHead=0;swimlaneBody=0;strokeColor=inherit;top=0;left=0;bottom=0;right=0;collapsible=0;dropTarget=0;fillColor=none;points=[[0,0.5],[1,0.5]];portConstraint=eastwest;fontSize=16;" vertex="1" parent="uidTZ6FEN5Be5QbSRCGR-209">
          <mxGeometry y="160" width="680" height="40" as="geometry" />
        </mxCell>
        <mxCell id="uidTZ6FEN5Be5QbSRCGR-223" value="Result" style="shape=partialRectangle;html=1;whiteSpace=wrap;connectable=0;strokeColor=#DFDFDF;overflow=hidden;fillColor=#F7F7F7;top=1;left=1;bottom=1;right=1;pointerEvents=1;fontSize=12;align=left;verticalAlign=middle;spacingLeft=10;spacingRight=10;fontFamily=Helvetica;fontColor=#333333;gradientColor=none;" vertex="1" parent="uidTZ6FEN5Be5QbSRCGR-222">
          <mxGeometry width="90" height="40" as="geometry">
            <mxRectangle width="90" height="40" as="alternateBounds" />
          </mxGeometry>
        </mxCell>
        <mxCell id="uidTZ6FEN5Be5QbSRCGR-224" value="&lt;div&gt;the Module is in the Idle state&lt;/div&gt;" style="shape=partialRectangle;html=1;whiteSpace=wrap;connectable=0;strokeColor=#DFDFDF;overflow=hidden;fillColor=#FFFFFF;top=1;left=1;bottom=1;right=1;pointerEvents=1;fontSize=12;align=left;verticalAlign=middle;spacingLeft=10;spacingRight=10;fontFamily=Helvetica;fontColor=#333333;gradientColor=none;" vertex="1" parent="uidTZ6FEN5Be5QbSRCGR-222">
          <mxGeometry x="90" width="590" height="40" as="geometry">
            <mxRectangle width="590" height="40" as="alternateBounds" />
          </mxGeometry>
        </mxCell>
        <mxCell id="uidTZ6FEN5Be5QbSRCGR-225" value="" style="shape=table;startSize=0;container=1;collapsible=0;childLayout=tableLayout;fontSize=16;rounded=0;strokeColor=default;swimlaneFillColor=none;gradientColor=none;" vertex="1" parent="1">
          <mxGeometry x="3480" y="40" width="720" height="380" as="geometry" />
        </mxCell>
        <mxCell id="uidTZ6FEN5Be5QbSRCGR-226" value="" style="shape=tableRow;horizontal=0;startSize=0;swimlaneHead=0;swimlaneBody=0;strokeColor=inherit;top=0;left=0;bottom=0;right=0;collapsible=0;dropTarget=0;fillColor=none;points=[[0,0.5],[1,0.5]];portConstraint=eastwest;fontSize=16;" vertex="1" parent="uidTZ6FEN5Be5QbSRCGR-225">
          <mxGeometry width="720" height="40" as="geometry" />
        </mxCell>
        <mxCell id="uidTZ6FEN5Be5QbSRCGR-227" value="&lt;b&gt;Name&lt;/b&gt;" style="shape=partialRectangle;html=1;whiteSpace=wrap;connectable=0;strokeColor=#DFDFDF;overflow=hidden;fillColor=#F7F7F7;top=1;left=1;bottom=1;right=1;pointerEvents=1;fontSize=12;align=left;verticalAlign=middle;spacingLeft=10;spacingRight=10;fontFamily=Helvetica;fontColor=#333333;gradientColor=none;" vertex="1" parent="uidTZ6FEN5Be5QbSRCGR-226">
          <mxGeometry width="90" height="40" as="geometry">
            <mxRectangle width="90" height="40" as="alternateBounds" />
          </mxGeometry>
        </mxCell>
        <mxCell id="uidTZ6FEN5Be5QbSRCGR-228" value="&lt;b&gt;checkSoC&lt;/b&gt;" style="shape=partialRectangle;html=1;whiteSpace=wrap;connectable=0;strokeColor=#DFDFDF;overflow=hidden;fillColor=#F7F7F7;top=1;left=1;bottom=1;right=1;pointerEvents=1;fontSize=12;align=left;verticalAlign=middle;spacingLeft=10;spacingRight=10;fontFamily=Helvetica;fontColor=#333333;gradientColor=none;" vertex="1" parent="uidTZ6FEN5Be5QbSRCGR-226">
          <mxGeometry x="90" width="630" height="40" as="geometry">
            <mxRectangle width="630" height="40" as="alternateBounds" />
          </mxGeometry>
        </mxCell>
        <mxCell id="uidTZ6FEN5Be5QbSRCGR-229" value="" style="shape=tableRow;horizontal=0;startSize=0;swimlaneHead=0;swimlaneBody=0;strokeColor=inherit;top=0;left=0;bottom=0;right=0;collapsible=0;dropTarget=0;fillColor=none;points=[[0,0.5],[1,0.5]];portConstraint=eastwest;fontSize=16;" vertex="1" parent="uidTZ6FEN5Be5QbSRCGR-225">
          <mxGeometry y="40" width="720" height="90" as="geometry" />
        </mxCell>
        <mxCell id="uidTZ6FEN5Be5QbSRCGR-230" value="Description" style="shape=partialRectangle;html=1;whiteSpace=wrap;connectable=0;strokeColor=#DFDFDF;overflow=hidden;fillColor=#F7F7F7;top=1;left=1;bottom=1;right=1;pointerEvents=1;fontSize=12;align=left;verticalAlign=middle;spacingLeft=10;spacingRight=10;fontFamily=Helvetica;fontColor=#333333;gradientColor=none;" vertex="1" parent="uidTZ6FEN5Be5QbSRCGR-229">
          <mxGeometry width="90" height="90" as="geometry">
            <mxRectangle width="90" height="90" as="alternateBounds" />
          </mxGeometry>
        </mxCell>
        <mxCell id="uidTZ6FEN5Be5QbSRCGR-231" value="As an interior event, check the state of charge (SoC) of the Module. If the Module is in the Charging state and the SoC is less than capacity, it stays in the current state. If the Module is in the Charging state and the SoC is equal to the capacity or exceeds it, it moves the Module to the Idle state. If the Module is in Discharging state and the SoC is more than Zero, it stays in the current state. If the Module is in the Discharging and the SoC is zero, it moves the Module to the Idle state." style="shape=partialRectangle;html=1;whiteSpace=wrap;connectable=0;strokeColor=#DFDFDF;overflow=hidden;fillColor=#FFFFFF;top=1;left=1;bottom=1;right=1;pointerEvents=1;fontSize=12;align=left;verticalAlign=middle;spacingLeft=10;spacingRight=10;fontFamily=Helvetica;fontColor=#333333;gradientColor=none;" vertex="1" parent="uidTZ6FEN5Be5QbSRCGR-229">
          <mxGeometry x="90" width="630" height="90" as="geometry">
            <mxRectangle width="630" height="90" as="alternateBounds" />
          </mxGeometry>
        </mxCell>
        <mxCell id="uidTZ6FEN5Be5QbSRCGR-232" value="" style="shape=tableRow;horizontal=0;startSize=0;swimlaneHead=0;swimlaneBody=0;strokeColor=inherit;top=0;left=0;bottom=0;right=0;collapsible=0;dropTarget=0;fillColor=none;points=[[0,0.5],[1,0.5]];portConstraint=eastwest;fontSize=16;" vertex="1" parent="uidTZ6FEN5Be5QbSRCGR-225">
          <mxGeometry y="130" width="720" height="40" as="geometry" />
        </mxCell>
        <mxCell id="uidTZ6FEN5Be5QbSRCGR-233" value="Reads" style="shape=partialRectangle;html=1;whiteSpace=wrap;connectable=0;strokeColor=#DFDFDF;overflow=hidden;fillColor=#F7F7F7;top=1;left=1;bottom=1;right=1;pointerEvents=1;fontSize=12;align=left;verticalAlign=middle;spacingLeft=10;spacingRight=10;fontFamily=Helvetica;fontColor=#333333;gradientColor=none;" vertex="1" parent="uidTZ6FEN5Be5QbSRCGR-232">
          <mxGeometry width="90" height="40" as="geometry">
            <mxRectangle width="90" height="40" as="alternateBounds" />
          </mxGeometry>
        </mxCell>
        <mxCell id="uidTZ6FEN5Be5QbSRCGR-234" value="SoC" style="shape=partialRectangle;html=1;whiteSpace=wrap;connectable=0;strokeColor=#DFDFDF;overflow=hidden;fillColor=#FFFFFF;top=1;left=1;bottom=1;right=1;pointerEvents=1;fontSize=12;align=left;verticalAlign=middle;spacingLeft=10;spacingRight=10;fontFamily=Helvetica;fontColor=#333333;gradientColor=none;" vertex="1" parent="uidTZ6FEN5Be5QbSRCGR-232">
          <mxGeometry x="90" width="630" height="40" as="geometry">
            <mxRectangle width="630" height="40" as="alternateBounds" />
          </mxGeometry>
        </mxCell>
        <mxCell id="uidTZ6FEN5Be5QbSRCGR-235" style="shape=tableRow;horizontal=0;startSize=0;swimlaneHead=0;swimlaneBody=0;strokeColor=inherit;top=0;left=0;bottom=0;right=0;collapsible=0;dropTarget=0;fillColor=none;points=[[0,0.5],[1,0.5]];portConstraint=eastwest;fontSize=16;" vertex="1" parent="uidTZ6FEN5Be5QbSRCGR-225">
          <mxGeometry y="170" width="720" height="40" as="geometry" />
        </mxCell>
        <mxCell id="uidTZ6FEN5Be5QbSRCGR-236" value="Changes" style="shape=partialRectangle;html=1;whiteSpace=wrap;connectable=0;strokeColor=#DFDFDF;overflow=hidden;fillColor=#F7F7F7;top=1;left=1;bottom=1;right=1;pointerEvents=1;fontSize=12;align=left;verticalAlign=middle;spacingLeft=10;spacingRight=10;fontFamily=Helvetica;fontColor=#333333;gradientColor=none;" vertex="1" parent="uidTZ6FEN5Be5QbSRCGR-235">
          <mxGeometry width="90" height="40" as="geometry">
            <mxRectangle width="90" height="40" as="alternateBounds" />
          </mxGeometry>
        </mxCell>
        <mxCell id="uidTZ6FEN5Be5QbSRCGR-237" value="Module, SoC" style="shape=partialRectangle;html=1;whiteSpace=wrap;connectable=0;strokeColor=#DFDFDF;overflow=hidden;fillColor=#FFFFFF;top=1;left=1;bottom=1;right=1;pointerEvents=1;fontSize=12;align=left;verticalAlign=middle;spacingLeft=10;spacingRight=10;fontFamily=Helvetica;fontColor=#333333;gradientColor=none;" vertex="1" parent="uidTZ6FEN5Be5QbSRCGR-235">
          <mxGeometry x="90" width="630" height="40" as="geometry">
            <mxRectangle width="630" height="40" as="alternateBounds" />
          </mxGeometry>
        </mxCell>
        <mxCell id="uidTZ6FEN5Be5QbSRCGR-238" style="shape=tableRow;horizontal=0;startSize=0;swimlaneHead=0;swimlaneBody=0;strokeColor=inherit;top=0;left=0;bottom=0;right=0;collapsible=0;dropTarget=0;fillColor=none;points=[[0,0.5],[1,0.5]];portConstraint=eastwest;fontSize=16;" vertex="1" parent="uidTZ6FEN5Be5QbSRCGR-225">
          <mxGeometry y="210" width="720" height="40" as="geometry" />
        </mxCell>
        <mxCell id="uidTZ6FEN5Be5QbSRCGR-239" value="Assumes" style="shape=partialRectangle;html=1;whiteSpace=wrap;connectable=0;strokeColor=#DFDFDF;overflow=hidden;fillColor=#F7F7F7;top=1;left=1;bottom=1;right=1;pointerEvents=1;fontSize=12;align=left;verticalAlign=middle;spacingLeft=10;spacingRight=10;fontFamily=Helvetica;fontColor=#333333;gradientColor=none;" vertex="1" parent="uidTZ6FEN5Be5QbSRCGR-238">
          <mxGeometry width="90" height="40" as="geometry">
            <mxRectangle width="90" height="40" as="alternateBounds" />
          </mxGeometry>
        </mxCell>
        <mxCell id="uidTZ6FEN5Be5QbSRCGR-240" value="The Module is in the Charging or Discharging state" style="shape=partialRectangle;html=1;whiteSpace=wrap;connectable=0;strokeColor=#DFDFDF;overflow=hidden;fillColor=#FFFFFF;top=1;left=1;bottom=1;right=1;pointerEvents=1;fontSize=12;align=left;verticalAlign=middle;spacingLeft=10;spacingRight=10;fontFamily=Helvetica;fontColor=#333333;gradientColor=none;" vertex="1" parent="uidTZ6FEN5Be5QbSRCGR-238">
          <mxGeometry x="90" width="630" height="40" as="geometry">
            <mxRectangle width="630" height="40" as="alternateBounds" />
          </mxGeometry>
        </mxCell>
        <mxCell id="uidTZ6FEN5Be5QbSRCGR-241" style="shape=tableRow;horizontal=0;startSize=0;swimlaneHead=0;swimlaneBody=0;strokeColor=inherit;top=0;left=0;bottom=0;right=0;collapsible=0;dropTarget=0;fillColor=none;points=[[0,0.5],[1,0.5]];portConstraint=eastwest;fontSize=16;" vertex="1" parent="uidTZ6FEN5Be5QbSRCGR-225">
          <mxGeometry y="250" width="720" height="130" as="geometry" />
        </mxCell>
        <mxCell id="uidTZ6FEN5Be5QbSRCGR-242" value="Result" style="shape=partialRectangle;html=1;whiteSpace=wrap;connectable=0;strokeColor=#DFDFDF;overflow=hidden;fillColor=#F7F7F7;top=1;left=1;bottom=1;right=1;pointerEvents=1;fontSize=12;align=left;verticalAlign=middle;spacingLeft=10;spacingRight=10;fontFamily=Helvetica;fontColor=#333333;gradientColor=none;" vertex="1" parent="uidTZ6FEN5Be5QbSRCGR-241">
          <mxGeometry width="90" height="130" as="geometry">
            <mxRectangle width="90" height="130" as="alternateBounds" />
          </mxGeometry>
        </mxCell>
        <mxCell id="uidTZ6FEN5Be5QbSRCGR-243" value="if the Module is in the Charging state and SoC &amp;lt; capacity&lt;div&gt;&lt;span style=&quot;white-space: pre;&quot;&gt;&#x9;&lt;/span&gt;Module stays in the same state and &lt;u&gt;SoC is increased&lt;/u&gt;&lt;br&gt;&lt;/div&gt;&lt;div&gt;if the Module is in the Charging state and SoC &amp;gt;= capacity&lt;/div&gt;&lt;div&gt;&lt;span style=&quot;white-space: pre;&quot;&gt;&#x9;&lt;/span&gt;The module is in the Idle state&lt;br&gt;&lt;/div&gt;&lt;div&gt;if the Module is in the Discharging state and SoC &amp;gt; 0&lt;div&gt;&lt;span style=&quot;white-space: pre;&quot;&gt;&#x9;&lt;/span&gt;The Module stays in the same state and &lt;u&gt;SoC is decreased&lt;/u&gt;&lt;br&gt;&lt;/div&gt;&lt;div&gt;if the Module is in the Discharging state and SoC == 0&lt;/div&gt;&lt;div&gt;&lt;span style=&quot;white-space: pre;&quot;&gt;&#x9;&lt;/span&gt;the Module is in the Idle state&lt;/div&gt;&lt;/div&gt;" style="shape=partialRectangle;html=1;whiteSpace=wrap;connectable=0;strokeColor=#DFDFDF;overflow=hidden;fillColor=#FFFFFF;top=1;left=1;bottom=1;right=1;pointerEvents=1;fontSize=12;align=left;verticalAlign=middle;spacingLeft=10;spacingRight=10;fontFamily=Helvetica;fontColor=#333333;gradientColor=none;" vertex="1" parent="uidTZ6FEN5Be5QbSRCGR-241">
          <mxGeometry x="90" width="630" height="130" as="geometry">
            <mxRectangle width="630" height="130" as="alternateBounds" />
          </mxGeometry>
        </mxCell>
      </root>
    </mxGraphModel>
  </diagram>
</mxfile>
